<?xml version="1.0" standalone="no"?>
<!DOCTYPE svg PUBLIC "-//W3C//DTD SVG 1.1//EN" "http://www.w3.org/Graphics/SVG/1.1/DTD/svg11.dtd" >
<svg xmlns="http://www.w3.org/2000/svg">
<metadata>Generated by IcoMoon</metadata>
<defs>
<font id="SimpleNexusIcons" horiz-adv-x="1024">
<font-face units-per-em="1024" ascent="960" descent="-64" />
<missing-glyph horiz-adv-x="1024" />
<glyph unicode="&#x20;" horiz-adv-x="512" d="" />
<glyph unicode="&#xe900;" glyph-name="airplane" d="M721.408 2.752c-3.424 0-6.976 0.704-10.176 2.112l-198.976 86.592-198.976-86.592c-7.84-3.392-16.992-2.656-24.224 2.112-7.232 4.704-11.584 12.736-11.584 21.408v90.976c0 8.352 4.032 16.128 10.848 20.928l119.040 83.776v124.48l-322.144-112.896c-7.776-2.88-16.448-1.536-23.232 3.264-6.816 4.768-10.816 12.608-10.816 20.896v97.28c0 8.544 4.288 16.576 11.424 21.312l344.768 229.824v208.544c0 57.792 47.040 104.864 104.864 104.864s104.864-47.040 104.864-104.864v-208.544l344.576-229.824c7.104-4.704 11.424-12.736 11.424-21.312v-97.28c0-8.288-4-16.128-10.816-20.896-6.752-4.8-15.36-5.984-23.232-3.264l-321.952 112.896v-124.48l119.040-83.776c6.816-4.8 10.848-12.608 10.848-20.928v-90.976c0-8.64-4.352-16.704-11.584-21.408-4.256-2.752-9.12-4.192-14.016-4.192zM328.704 106.048v-38.592l173.376 75.424c6.496 2.752 13.888 2.752 20.384 0l173.376-75.424v38.592l-119.040 83.776c-6.816 4.768-10.848 12.608-10.848 20.928v173.888c0 8.352 4 16.128 10.816 20.928 6.816 4.704 15.456 5.984 23.232 3.232l321.952-112.896v47.52l-344.64 229.824c-7.072 4.704-11.36 12.736-11.36 21.312v222.208c0 29.536-24.064 53.664-53.664 53.664s-53.664-24.128-53.664-53.664v-222.208c0-8.544-4.288-16.576-11.424-21.312l-344.768-229.824v-47.52l322.144 112.896c7.776 2.752 16.48 1.472 23.232-3.232 6.816-4.8 10.816-12.608 10.816-20.928v-173.888c0-8.352-4.032-16.192-10.848-20.928l-119.040-83.776z" />
<glyph unicode="&#xe901;" glyph-name="apartment" d="M162.752 53.856v210.816c0 28.288 22.912 51.2 51.2 51.2h82.56c28.288 0 51.2-22.912 51.2-51.2v-210.816h35.264v588.928h-255.52v-588.928h35.296zM887.040 51.552v816.288l-453.408 2.208v-816.288l453.408-2.208zM408.384 921.6l504.064-2.432c13.92-0.064 25.216-11.52 25.216-25.728v-867.744c0-6.848-2.688-13.44-7.456-18.208s-11.2-7.52-17.984-7.52l-504.064 2.432h-306.080c-13.984 0-25.344 11.52-25.344 25.728v640.384c0 14.24 11.36 25.728 25.344 25.728h280.832v201.632c0 6.848 2.688 13.44 7.456 18.272 4.768 4.736 11.2 7.456 17.888 7.456h0.096zM213.376 53.856h83.68v210.592h-83.68v-210.592zM225.728 442.656h58.976v82.816h-58.976v-82.816zM226.272 391.232c-28.288 0-51.2 22.912-51.2 51.2v83.328c0 28.288 22.912 51.2 51.2 51.2h57.888c28.288 0 51.2-22.912 51.2-51.2v-83.328c0-28.288-22.912-51.2-51.2-51.2h-57.888zM527.744 191.136h58.976v82.816h-58.976v-82.816zM528.288 139.68c-28.288 0-51.2 22.912-51.2 51.2v83.328c0 28.288 22.912 51.2 51.2 51.2h57.888c28.288 0 51.2-22.912 51.2-51.2v-83.328c0-28.288-22.912-51.2-51.2-51.2h-57.888zM731.488 191.136h58.976v82.816h-58.976v-82.816zM732.032 139.68c-28.288 0-51.2 22.912-51.2 51.2v83.328c0 28.288 22.912 51.2 51.2 51.2h57.888c28.288 0 51.2-22.912 51.2-51.2v-83.328c0-28.288-22.912-51.2-51.2-51.2h-57.888zM527.744 442.656h58.976v82.816h-58.976v-82.816zM528.288 391.232c-28.288 0-51.2 22.912-51.2 51.2v83.328c0 28.288 22.912 51.2 51.2 51.2h57.888c28.288 0 51.2-22.912 51.2-51.2v-83.328c0-28.288-22.912-51.2-51.2-51.2h-57.888zM731.488 442.656h58.976v82.816h-58.976v-82.816zM732.032 391.232c-28.288 0-51.2 22.912-51.2 51.2v83.328c0 28.288 22.912 51.2 51.2 51.2h57.888c28.288 0 51.2-22.912 51.2-51.2v-83.328c0-28.288-22.912-51.2-51.2-51.2h-57.888zM527.744 694.24h58.976v82.816h-58.976v-82.816zM528.288 642.784c-28.288 0-51.2 22.912-51.2 51.2v83.328c0 28.288 22.912 51.2 51.2 51.2h57.888c28.288 0 51.2-22.912 51.2-51.2v-83.328c0-28.288-22.912-51.2-51.2-51.2h-57.888zM731.488 694.24h58.976v82.816h-58.976v-82.816zM732.032 642.784c-28.288 0-51.2 22.912-51.2 51.2v83.328c0 28.288 22.912 51.2 51.2 51.2h57.888c28.288 0 51.2-22.912 51.2-51.2v-83.328c0-28.288-22.912-51.2-51.2-51.2h-57.888z" />
<glyph unicode="&#xe902;" glyph-name="bank" d="M878.496 644.064h-732.96c-10.208 0-19.2 6.784-22.048 16.576s1.184 20.352 9.888 25.76l366.496 229.056c7.424 4.64 16.864 4.64 24.288 0l366.496-229.056c8.672-5.408 12.704-15.904 9.888-25.76s-11.808-16.576-22.048-16.576v0zM225.376 689.856h573.216l-286.624 179.104-286.592-179.104zM328.768 140.128h-22.912v412.288h22.912c12.64 0 22.912 10.272 22.912 22.912s-10.272 22.912-22.912 22.912h-183.232c-12.64 0-22.912-10.272-22.912-22.912s10.272-22.912 22.912-22.912h22.912v-412.288h-22.912c-12.64 0-22.912-10.272-22.912-22.912s10.272-22.912 22.912-22.912h183.232c12.64 0 22.912 10.272 22.912 22.912s-10.272 22.912-22.912 22.912zM260.032 140.128h-45.824v412.288h45.824v-412.288zM603.616 140.128h-22.912v412.288h22.912c12.64 0 22.912 10.272 22.912 22.912s-10.272 22.912-22.912 22.912h-183.232c-12.64 0-22.912-10.272-22.912-22.912s10.272-22.912 22.912-22.912h22.912v-412.288h-22.912c-12.64 0-22.912-10.272-22.912-22.912s10.272-22.912 22.912-22.912h183.232c12.64 0 22.912 10.272 22.912 22.912s-10.272 22.912-22.912 22.912zM534.912 140.128h-45.824v412.288h45.824v-412.288zM878.496 140.128h-22.912v412.288h22.912c12.64 0 22.912 10.272 22.912 22.912s-10.272 22.912-22.912 22.912h-183.232c-12.64 0-22.912-10.272-22.912-22.912s10.272-22.912 22.912-22.912h22.912v-412.288h-22.912c-12.64 0-22.912-10.272-22.912-22.912s10.272-22.912 22.912-22.912h183.232c12.64 0 22.912 10.272 22.912 22.912s-10.272 22.912-22.912 22.912zM809.76 140.128h-45.824v412.288h45.824v-412.288zM924.288 2.72h-824.576c-12.64 0-22.912 10.272-22.912 22.912s10.272 22.912 22.912 22.912h824.576c12.64 0 22.912-10.272 22.912-22.912s-10.272-22.912-22.912-22.912z" />
<glyph unicode="&#xe903;" glyph-name="bar-chart-rise" d="M917.216 914.496c-6.496 6.496-16.096 8.768-24.832 5.856l-145.504-48.512c-12.704-4.224-19.584-17.952-15.328-30.656s17.984-19.584 30.656-15.328l48.064 16-208.32-208.32c-10.336-10.336-29.696-11.744-41.408-2.944l-116.416 87.296c-30.272 22.688-76.992 21.728-106.272-2.24l-229.248-187.584c-10.368-8.48-11.872-23.776-3.392-34.144 4.8-5.856 11.744-8.864 18.784-8.864 5.376 0 10.816 1.792 15.328 5.472l229.248 187.584c11.936 9.792 34.112 10.24 46.432 0.96l116.416-87.296c31.2-23.392 77.216-20.128 104.832 7.456l208.32 208.32-16-48.064c-4.224-12.704 2.624-26.432 15.328-30.656 2.528-0.864 5.152-1.248 7.648-1.248 10.144 0 19.584 6.464 22.976 16.576l48.512 145.504c2.912 8.736 0.64 18.336-5.856 24.832l0.096-0.064zM220.96-0.032h-145.504c-13.376 0-24.256 10.88-24.256 24.256v339.552c0 13.376 10.88 24.256 24.256 24.256h145.504c13.376 0 24.256-10.88 24.256-24.256v-339.552c0-13.376-10.88-24.256-24.256-24.256zM99.712 48.48h97.024v291.040h-97.024v-291.040zM463.488-0.032h-145.504c-13.376 0-24.256 10.88-24.256 24.256v485.056c0 13.376 10.88 24.256 24.256 24.256h145.504c13.376 0 24.256-10.88 24.256-24.256v-485.056c0-13.376-10.88-24.256-24.256-24.256zM342.24 48.48h97.024v436.544h-97.024v-436.544zM706.016-0.032h-145.504c-13.376 0-24.256 10.88-24.256 24.256v436.544c0 13.376 10.88 24.256 24.256 24.256h145.504c13.376 0 24.256-10.88 24.256-24.256v-436.544c0-13.376-10.88-24.256-24.256-24.256zM584.768 48.48h97.024v388.032h-97.024v-388.032zM948.544-0.032h-145.504c-13.376 0-24.256 10.88-24.256 24.256v630.56c0 13.376 10.88 24.256 24.256 24.256h145.504c13.376 0 24.256-10.88 24.256-24.256v-630.56c0-13.376-10.88-24.256-24.256-24.256zM827.296 48.48h97.024v582.048h-97.024v-582.048z" />
<glyph unicode="&#xe904;" glyph-name="bell" d="M233.568 150.304c18.176 22.944 29.024 51.968 29.024 83.456v291.072c0 119.2 84.64 223.296 201.12 247.552 11.936 2.464 20.416 12.896 20.416 25.088v63.584c0 5.12 4.192 9.312 9.312 9.312h51.104c3.392 0 6.080-2.72 6.080-6.080v-66.816c0-12.192 8.512-22.624 20.416-25.088 116.48-24.256 201.12-128.352 201.12-247.552v-291.072c0-31.488 10.816-60.512 29.024-83.456h-567.648zM448.704 99.104h137.312c-10.432-27.904-37.184-47.936-68.672-47.936-31.552 0-58.272 20.032-68.672 47.936zM823.392 233.76v291.072c0 136.288-91.968 256.096-221.536 292.672v46.784c0 31.648-25.696 57.28-57.28 57.28h-51.104c-33.376 0-60.512-27.136-60.512-60.512v-43.584c-129.6-36.544-221.536-156.352-221.536-292.672v-291.072c0-46.016-37.376-83.456-83.392-83.456-14.144 0-25.6-11.456-25.6-25.6s11.456-25.6 25.6-25.6h267.328c11.872-56.512 62.048-99.136 122.048-99.136 59.968 0 110.144 42.592 122.016 99.136h267.36c14.176 0 25.6 11.456 25.6 25.6s-11.424 25.6-25.6 25.6c-45.984 0-83.36 37.44-83.36 83.456z" />
<glyph unicode="&#xe905;" glyph-name="box" d="M921.184 172.096l-818.784 0.416 0.448 255.584h230.816c22.336-77.472 93.792-134.304 178.336-134.304s156.064 56.832 178.336 134.304h230.848l0.416-0.448-0.416-255.552zM254.88 736.384c8.288 16.544 32.672 31.648 51.2 31.648h411.392c18.592 0 42.912-15.104 51.2-31.648l128.576-257.088h-250.944c0-74.176-60.096-134.304-134.304-134.304-74.144 0-134.304 60.096-134.304 134.304h-251.328l128.512 257.088zM966.944 450.432l-152.48 308.832c-16.8 33.632-59.392 59.968-97.024 59.968h-411.392c-37.568 0-80.192-26.304-96.96-59.968l-153.248-310.432 0.192 0.064c-3.008-6.496-4.864-13.568-4.864-21.248v-255.136c0-28.512 23.104-51.616 51.648-51.616h818.336c28.512 0 51.616 23.104 51.616 51.616v255.136c0 8.288-2.368 15.808-5.824 22.784v0z" />
<glyph unicode="&#xe906;" glyph-name="cake" d="M153.6 162.304h706.112v129.184h-706.112v-129.184zM153.6 51.84h706.112v59.232h-706.112v-59.232zM481.536 431.392l-220.992-88.672h596.896c-15.36 88.32-105.216 161.696-136.352 184.768l-107.616-43.168v-50.368c0-36.512-29.696-66.208-66.208-66.208-35.648 0-64.256 28.416-65.728 63.648zM532.288 633.376v-199.424c0-8.256 6.72-15.008 15.008-15.008s15.008 6.752 15.008 15.008v199.424c0 8.352-6.72 15.040-15.008 15.040s-15.008-6.72-15.008-15.040zM738.624 577.824c7.008-4.544 172.288-114.624 172.288-260.704v-290.88c0-14.144-11.456-25.6-25.6-25.6h-757.312c-14.144 0-25.6 11.456-25.6 25.6v290.88c0 0.608 0.32 1.12 0.352 1.728 0.16 2.048 0.576 3.936 1.184 5.824 0.352 1.184 0.608 2.304 1.184 3.424 0.832 1.792 2.048 3.328 3.264 4.864 0.704 0.864 1.28 1.792 2.048 2.56 1.632 1.6 3.648 2.752 5.696 3.84 0.704 0.416 1.344 1.024 2.144 1.376 0.096 0 0.096 0.064 0.16 0.096l362.656 145.472v147.040c0 36.544 29.696 66.24 66.208 66.24s66.208-29.696 66.208-66.24v-93.952l101.536 40.768c7.84 3.168 16.576 2.24 23.616-2.368zM546.816 840.704c-7.68-18.176-14.528-40.288-14.528-61.376 0-8.288 6.752-15.040 15.040-15.040 8.256 0 15.008 6.752 15.008 15.040 0 18.944-7.168 41.664-15.52 61.376zM547.328 713.056c-36.544 0-66.24 29.696-66.24 66.24 0 64.352 43.264 128.448 45.12 131.136 4.864 7.104 11.712 10.688 21.664 11.168 8.608-0.192 16.576-4.704 21.184-11.968 1.792-2.976 44.48-71.84 44.48-130.304 0-36.544-29.696-66.24-66.208-66.24z" />
<glyph unicode="&#xe907;" glyph-name="calculator" d="M366.496 679.072h-194.016c-13.376 0-24.256 10.88-24.256 24.256s10.88 24.256 24.256 24.256h194.016c13.376 0 24.256-10.88 24.256-24.256s-10.88-24.256-24.256-24.256zM366.496 242.528h-72.768v72.768c0 13.376-10.88 24.256-24.256 24.256s-24.256-10.88-24.256-24.256v-72.768h-72.768c-13.376 0-24.256-10.88-24.256-24.256s10.88-24.256 24.256-24.256h72.768v-72.768c0-13.376 10.88-24.256 24.256-24.256s24.256 10.88 24.256 24.256v72.768h72.768c13.376 0 24.256 10.88 24.256 24.256s-10.88 24.256-24.256 24.256zM900.032 0h-291.040c-40.128 0-72.768 32.64-72.768 72.768v776.096c0 40.128 32.64 72.768 72.768 72.768h291.040c40.128 0 72.768-32.64 72.768-72.768v-776.096c0-40.128-32.64-72.768-72.768-72.768zM609.024 873.088c-13.376 0-24.256-10.88-24.256-24.256v-776.096c0-13.376 10.88-24.256 24.256-24.256h291.040c13.376 0 24.256 10.88 24.256 24.256v776.096c0 13.376-10.88 24.256-24.256 24.256h-291.040zM414.976 485.056h-291.040c-40.128 0-72.768 32.64-72.768 72.768v291.040c0 40.128 32.64 72.768 72.768 72.768h291.040c40.128 0 72.768-32.64 72.768-72.768v-291.040c0-40.128-32.64-72.768-72.768-72.768zM123.968 873.088c-13.376 0-24.256-10.88-24.256-24.256v-291.040c0-13.376 10.88-24.256 24.256-24.256h291.040c13.376 0 24.256 10.88 24.256 24.256v291.040c0 13.376-10.88 24.256-24.256 24.256h-291.040zM414.976 0c40.128 0 72.768 32.64 72.768 72.768v291.040c0 40.128-32.64 72.768-72.768 72.768h-291.040c-40.128 0-72.768-32.64-72.768-72.768v-291.040c0-40.128 32.64-72.768 72.768-72.768h291.040zM123.968 388.032h291.040c13.376 0 24.256-10.88 24.256-24.256v-291.040c0-13.376-10.88-24.256-24.256-24.256h-291.040c-13.376 0-24.256 10.88-24.256 24.256v291.040c0 13.376 10.88 24.256 24.256 24.256zM851.552 485.056h-194.016c-13.376 0-24.256 10.88-24.256 24.256s10.88 24.256 24.256 24.256h194.016c13.376 0 24.256-10.88 24.256-24.256s-10.88-24.256-24.256-24.256zM851.552 388.032h-194.016c-13.376 0-24.256 10.88-24.256 24.256s10.88 24.256 24.256 24.256h194.016c13.376 0 24.256-10.88 24.256-24.256s-10.88-24.256-24.256-24.256z" />
<glyph unicode="&#xe908;" glyph-name="calendar" d="M903.68 824.32h-115.2v23.040c0 12.704-10.336 23.040-23.040 23.040s-23.040-10.336-23.040-23.040v-23.040h-460.8v23.040c0 12.704-10.336 23.040-23.040 23.040s-23.040-10.336-23.040-23.040v-23.040h-115.2c-38.112 0-69.12-31.008-69.12-69.12v-645.12c0-38.112 31.008-69.12 69.12-69.12h783.36c38.112 0 69.12 31.008 69.12 69.12v645.12c0 38.112-31.008 69.12-69.12 69.12zM120.32 778.24h115.2v-69.12c0-12.704 10.336-23.040 23.040-23.040s23.040 10.336 23.040 23.040v69.12h460.8v-69.12c0-12.704 10.336-23.040 23.040-23.040s23.040 10.336 23.040 23.040v69.12h115.2c12.704 0 23.040-10.336 23.040-23.040v-115.2h-829.44v115.2c0 12.704 10.336 23.040 23.040 23.040zM765.44 409.6h-506.88c-12.704 0-23.040 10.336-23.040 23.040s10.336 23.040 23.040 23.040h506.88c12.704 0 23.040-10.336 23.040-23.040s-10.336-23.040-23.040-23.040zM765.44 317.44h-506.88c-12.704 0-23.040 10.336-23.040 23.040s10.336 23.040 23.040 23.040h506.88c12.704 0 23.040-10.336 23.040-23.040s-10.336-23.040-23.040-23.040zM488.96 225.28h-230.4c-12.704 0-23.040 10.336-23.040 23.040s10.336 23.040 23.040 23.040h230.4c12.704 0 23.040-10.336 23.040-23.040s-10.336-23.040-23.040-23.040zM903.68 87.040h-783.36c-12.704 0-23.040 10.336-23.040 23.040v483.84h829.44v-483.84c0-12.704-10.336-23.040-23.040-23.040z" />
<glyph unicode="&#xe909;" glyph-name="camera" d="M899.968 91.648h-776c-40.096 0-72.736 32.64-72.736 72.736v484.992c0 40.096 32.64 72.736 72.736 72.736h72.736c20.128 0 51.424 12.96 65.664 27.2l28.416 28.416c23.616 23.616 66.592 41.408 99.968 41.408h242.496c33.376 0 76.352-17.792 99.968-41.408l28.416-28.416c14.208-14.208 45.536-27.2 65.664-27.2h72.736c40.096 0 72.736-32.64 72.736-72.736v-484.992c0-40.096-32.64-72.736-72.736-72.736h-0.096zM123.936 673.664c-13.376 0-24.256-10.848-24.256-24.256v-484.992c0-13.376 10.88-24.256 24.256-24.256h776c13.376 0 24.256 10.88 24.256 24.256v484.992c0 13.376-10.88 24.256-24.256 24.256h-72.736c-33.376 0-76.352 17.792-99.968 41.408l-28.416 28.416c-14.208 14.208-45.536 27.2-65.664 27.2h-242.496c-20.128 0-51.424-12.96-65.664-27.2l-28.416-28.416c-23.616-23.616-66.528-41.408-99.968-41.408h-72.64zM511.936 237.152c-120.32 0-218.24 97.92-218.24 218.24s97.92 218.24 218.24 218.24c120.32 0 218.24-97.92 218.24-218.24s-97.92-218.24-218.24-218.24zM511.936 625.152c-93.6 0-169.76-76.16-169.76-169.76s76.16-169.76 169.76-169.76c93.6 0 169.76 76.16 169.76 169.76s-76.16 169.76-169.76 169.76z" />
<glyph unicode="&#xe90a;" glyph-name="case" d="M716.8 716.8v76.8c0 42.336-34.464 76.8-76.8 76.8h-256c-42.336 0-76.8-34.464-76.8-76.8v-76.8h-179.2c-42.336 0-76.8-34.464-76.8-76.8v-509.376c0-42.336 34.464-76.8 76.8-76.8h768c42.336 0 76.8 34.464 76.8 76.8v509.376c0 42.336-34.464 76.8-76.8 76.8h-179.2zM358.4 793.6c0 14.144 11.456 25.6 25.6 25.6h256c14.144 0 25.6-11.456 25.6-25.6v-76.8h-307.2v76.8zM896 665.6c14.144 0 25.6-11.456 25.6-25.6v-330.176h-102.4v25.6c0 14.144-11.456 25.6-25.6 25.6h-102.4c-14.144 0-25.6-11.456-25.6-25.6v-25.6h-307.2v25.6c0 14.144-11.456 25.6-25.6 25.6h-102.4c-14.144 0-25.6-11.456-25.6-25.6v-25.6h-102.4v330.176c0 14.144 11.456 25.6 25.6 25.6h768zM716.8 258.624v51.2h51.2v-51.2h-51.2zM256 258.624v51.2h51.2v-51.2h-51.2zM128 105.024c-14.144 0-25.6 11.456-25.6 25.6v128h102.4v-25.6c0-14.144 11.456-25.6 25.6-25.6h102.4c14.144 0 25.6 11.456 25.6 25.6v25.6h307.2v-25.6c0-14.144 11.456-25.6 25.6-25.6h102.4c14.144 0 25.6 11.456 25.6 25.6v25.6h102.4v-128c0-14.144-11.456-25.6-25.6-25.6h-768z" />
<glyph unicode="&#xe90b;" glyph-name="chat" d="M561.408 581.888c-50.176 0-91.040-40.864-91.040-91.040v-210.272c0-50.176 40.864-90.976 91.040-90.976h133.632c6.816 0 13.312-2.72 18.112-7.52l96.512-96.512v78.912c0 13.728 10.848 25.024 24.512 25.6 48.992 1.952 87.392 41.728 87.392 90.528v210.272c0 50.176-40.864 91.040-91.040 91.040h-269.152zM835.296-1.824c-6.656 0-13.216 2.56-18.112 7.488l-132.704 132.768h-123.040c-78.432 0-142.24 63.808-142.24 142.176v210.272c0 78.432 63.808 142.24 142.24 142.24h269.152c78.432 0 142.24-63.808 142.24-142.24v-210.272c0-68-47.52-124.768-111.936-138.656v-118.176c0-10.4-6.24-19.712-15.808-23.648-3.136-1.344-6.496-1.952-9.792-1.952zM727.36 921.6c65.376 0 118.592-53.248 118.592-118.624v-113.92c0-14.144-11.424-25.6-25.6-25.6-14.144 0-25.6 11.456-25.6 25.6v113.92c0 37.184-30.208 67.424-67.392 67.424h-557.568c-37.12 0-67.392-30.272-67.392-67.424v-453.696c0-37.184 30.272-67.424 67.392-67.424h37.984c14.144 0 25.6-11.456 25.6-25.6v-96.256l114.336 114.336c2.464 2.496 5.376 4.352 8.608 5.632 3.52 1.952 7.424 3.264 11.776 3.264 2.4 0 4.672-0.704 6.848-1.376h1.472v-0.32c9.824-3.424 16.992-12.608 16.992-23.648 0-8.352-4.288-15.424-10.56-20.032l0.096-0.608-6.56-6.592-150.592-150.592c-4.928-4.864-11.456-7.488-18.080-7.488-3.328 0-6.656 0.672-9.824 1.952-9.536 3.936-15.776 13.312-15.776 23.648v132.448h-12.384c-65.376 0-118.592 53.248-118.592 118.624v453.696c0 65.376 53.184 118.624 118.592 118.624h557.568z" />
<glyph unicode="&#xe90c;" glyph-name="check-circle" d="M414.976 266.784c-6.208 0-12.416 2.368-17.184 7.072l-145.504 145.504c-9.472 9.472-9.472 24.832 0 34.304s24.832 9.472 34.304 0l128.352-128.352 322.368 322.368c9.472 9.472 24.832 9.472 34.304 0s9.472-24.832 0-34.304l-339.552-339.552c-4.768-4.768-10.976-7.072-17.184-7.072h0.096zM512 0c-123.104 0-238.784 47.936-325.856 134.944s-134.944 202.752-134.944 325.824c0 123.104 47.936 238.784 134.944 325.856s202.752 134.976 325.856 134.976c123.104 0 238.784-47.936 325.856-134.976s134.944-202.752 134.944-325.856c0-123.104-47.936-238.784-134.944-325.824s-202.752-134.944-325.856-134.944zM512 873.088c-227.328 0-412.288-184.96-412.288-412.288s184.96-412.288 412.288-412.288c227.36 0 412.288 184.96 412.288 412.288s-184.96 412.288-412.288 412.288z" />
<glyph unicode="&#xe90d;" glyph-name="check-list" d="M143.36 645.12c-5.888 0-11.808 2.272-16.32 6.72l-69.12 69.12c-8.992 8.992-8.992 23.584 0 32.576s23.584 8.992 32.576 0l52.8-52.8 191.040 191.040c8.992 8.992 23.584 8.992 32.576 0s8.992-23.584 0-32.576l-207.36-207.36c-4.512-4.512-10.4-6.72-16.32-6.72h0.096zM949.76 691.2h-552.96c-12.704 0-23.040 10.336-23.040 23.040s10.336 23.040 23.040 23.040h552.96c12.704 0 23.040-10.336 23.040-23.040s-10.336-23.040-23.040-23.040zM143.36 322.56c-5.888 0-11.808 2.272-16.32 6.72l-69.12 69.12c-8.992 8.992-8.992 23.584 0 32.576s23.584 8.992 32.576 0l52.8-52.8 191.040 191.040c8.992 8.992 23.584 8.992 32.576 0s8.992-23.584 0-32.576l-207.36-207.36c-4.512-4.512-10.4-6.72-16.32-6.72h0.096zM949.76 368.64h-552.96c-12.704 0-23.040 10.336-23.040 23.040s10.336 23.040 23.040 23.040h552.96c12.704 0 23.040-10.336 23.040-23.040s-10.336-23.040-23.040-23.040zM143.36 0c-5.888 0-11.808 2.272-16.32 6.72l-69.12 69.12c-8.992 8.992-8.992 23.584 0 32.576s23.584 8.992 32.576 0l52.8-52.8 191.040 191.040c8.992 8.992 23.584 8.992 32.576 0s8.992-23.584 0-32.576l-207.36-207.36c-4.512-4.512-10.4-6.72-16.32-6.72h0.096zM949.76 46.080h-552.96c-12.704 0-23.040 10.336-23.040 23.040s10.336 23.040 23.040 23.040h552.96c12.704 0 23.040-10.336 23.040-23.040s-10.336-23.040-23.040-23.040z" />
<glyph unicode="&#xe90e;" glyph-name="check" d="M304.672 127.968c-5.888 0-11.808 2.272-16.32 6.72l-230.432 230.432c-8.992 8.992-8.992 23.584 0 32.576s23.584 8.992 32.576 0l214.112-214.112 628.864 628.864c8.992 8.992 23.584 8.992 32.576 0s8.992-23.584 0-32.576l-645.184-645.184c-4.512-4.512-10.4-6.72-16.32-6.72h0.096z" />
<glyph unicode="&#xe90f;" glyph-name="chevron-down-small" d="M274.048 606.976c-10.016 9.952-26.24 9.92-36.192-0.128s-9.92-26.24 0.128-36.192l257.728-256c10.016-9.952 26.24-9.92 36.192 0.128l254.272 256c9.952 10.016 9.92 26.24-0.128 36.192s-26.24 9.92-36.192-0.128l-236.256-237.824-239.552 237.952z" />
<glyph unicode="&#xe910;" glyph-name="chevron-down" d="M514.816 316.768l-420.512 393.152c-10.336 9.664-26.528 9.12-36.192-1.216s-9.12-26.528 1.216-36.192l438.112-409.6c9.888-9.248 25.28-9.184 35.104 0.128l432.288 409.6c10.272 9.728 10.688 25.92 0.96 36.192s-25.92 10.688-36.192 0.96l-414.784-393.024z" />
<glyph unicode="&#xe911;" glyph-name="chevron-left-small" d="M632.576 698.752c9.952 10.016 9.92 26.24-0.128 36.192s-26.24 9.92-36.192-0.128l-256-257.728c-9.952-10.016-9.92-26.24 0.128-36.192l256-254.272c10.016-9.952 26.24-9.92 36.192 0.128s9.92 26.24-0.128 36.192l-237.824 236.256 237.952 239.552z" />
<glyph unicode="&#xe912;" glyph-name="chevron-left" d="M342.368 457.984l393.152 420.512c9.664 10.336 9.12 26.528-1.216 36.192s-26.528 9.12-36.192-1.216l-409.6-438.112c-9.248-9.888-9.184-25.28 0.128-35.104l409.6-432.288c9.728-10.272 25.92-10.688 36.192-0.96s10.688 25.92 0.96 36.192l-393.024 414.784z" />
<glyph unicode="&#xe913;" glyph-name="chevron-right-small" d="M365.824 698.752c-9.952 10.016-9.92 26.24 0.128 36.192s26.24 9.92 36.192-0.128l256-257.728c9.952-10.016 9.92-26.24-0.128-36.192l-256-254.272c-10.016-9.952-26.24-9.92-36.192 0.128s-9.92 26.24 0.128 36.192l237.824 236.256-237.952 239.552z" />
<glyph unicode="&#xe914;" glyph-name="chevron-right" d="M681.632 457.984l-393.152 420.512c-9.664 10.336-9.12 26.528 1.216 36.192s26.528 9.12 36.192-1.216l409.6-438.112c9.248-9.888 9.184-25.28-0.128-35.104l-409.6-432.288c-9.728-10.272-25.92-10.688-36.192-0.96s-10.688 25.92-0.96 36.192l393.024 414.784z" />
<glyph unicode="&#xe915;" glyph-name="chevron-up-small" d="M274.048 314.624c-10.016-9.952-26.24-9.92-36.192 0.128s-9.92 26.24 0.128 36.192l257.728 256c10.016 9.952 26.24 9.92 36.192-0.128l254.272-256c9.952-10.016 9.92-26.24-0.128-36.192s-26.24-9.92-36.192 0.128l-236.256 237.824-239.552-237.952z" />
<glyph unicode="&#xe916;" glyph-name="chevron-up" d="M514.816 656.032l-420.512-393.152c-10.336-9.664-26.528-9.12-36.192 1.216s-9.12 26.528 1.216 36.192l438.112 409.6c9.888 9.248 25.28 9.184 35.104-0.128l432.288-409.6c10.272-9.728 10.688-25.92 0.96-36.192s-25.92-10.688-36.192-0.96l-414.784 393.024z" />
<glyph unicode="&#xe917;" glyph-name="circle" d="M512 921.6c254.496 0 460.8-206.304 460.8-460.8s-206.304-460.8-460.8-460.8c-254.496 0-460.8 206.304-460.8 460.8s206.304 460.8 460.8 460.8zM512 51.2c226.208 0 409.6 183.392 409.6 409.6s-183.392 409.6-409.6 409.6c-226.208 0-409.6-183.392-409.6-409.6s183.392-409.6 409.6-409.6z" />
<glyph unicode="&#xe918;" glyph-name="clipboard" d="M816.64 0h-645.12c-38.112 0-69.12 31.008-69.12 69.12v645.12c0 38.112 31.008 69.12 69.12 69.12h46.080c12.704 0 23.040-10.336 23.040-23.040s-10.336-23.040-23.040-23.040h-46.080c-12.704 0-23.040-10.336-23.040-23.040v-645.12c0-12.704 10.336-23.040 23.040-23.040h645.12c12.704 0 23.040 10.336 23.040 23.040v645.12c0 12.704-10.336 23.040-23.040 23.040h-46.080c-12.704 0-23.040 10.336-23.040 23.040s10.336 23.040 23.040 23.040h46.080c38.112 0 69.12-31.008 69.12-69.12v-645.12c0-38.112-31.008-69.12-69.12-69.12zM494.080 783.36c-6.080 0-12.032 2.432-16.256 6.784s-6.784 10.24-6.784 16.256c0 6.048 2.432 12.032 6.784 16.256 4.288 4.288 10.24 6.784 16.256 6.784s12.032-2.432 16.256-6.784c4.288-4.288 6.784-10.24 6.784-16.256s-2.432-11.968-6.784-16.256c-4.288-4.288-10.24-6.784-16.256-6.784zM724.48 552.96h-460.8c-12.704 0-23.040 10.336-23.040 23.040s10.336 23.040 23.040 23.040h460.8c12.704 0 23.040-10.336 23.040-23.040s-10.336-23.040-23.040-23.040zM632.32 414.72h-368.64c-12.704 0-23.040 10.336-23.040 23.040s10.336 23.040 23.040 23.040h368.64c12.704 0 23.040-10.336 23.040-23.040s-10.336-23.040-23.040-23.040zM724.48 322.56h-460.8c-12.704 0-23.040 10.336-23.040 23.040s10.336 23.040 23.040 23.040h460.8c12.704 0 23.040-10.336 23.040-23.040s-10.336-23.040-23.040-23.040zM724.48 230.4h-460.8c-12.704 0-23.040 10.336-23.040 23.040s10.336 23.040 23.040 23.040h460.8c12.704 0 23.040-10.336 23.040-23.040s-10.336-23.040-23.040-23.040zM494.080 138.24h-230.4c-12.704 0-23.040 10.336-23.040 23.040s10.336 23.040 23.040 23.040h230.4c12.704 0 23.040-10.336 23.040-23.040s-10.336-23.040-23.040-23.040zM678.432 691.2c0 0 0 0-0.032 0h-368.64c-12.704 0-23.040 10.336-23.040 23.040 0 46.304 20.864 82.304 58.784 101.248 12.672 6.368 25.216 9.824 35.2 11.712 9.824 53.632 56.896 94.432 113.312 94.432s103.488-40.768 113.312-94.432c10.048-1.888 22.528-5.344 35.2-11.712 37.6-18.816 58.432-54.272 58.784-100 0.032-0.416 0.032-0.832 0.032-1.248 0-12.704-10.336-23.040-23.040-23.040h0.096zM335.552 737.28h317.024c-4.416 16.416-14.144 28.416-29.408 36.416-17.92 9.344-36.864 9.664-37.088 9.664-12.704 0-22.912 10.336-22.912 23.040 0 38.112-31.008 69.12-69.12 69.12s-69.12-31.008-69.12-69.12c0-12.704-10.336-23.040-23.040-23.040-0.032 0-19.040-0.32-36.96-9.664-15.264-7.968-24.96-19.968-29.408-36.416z" />
<glyph unicode="&#xe919;" glyph-name="conditional-split" d="M705.984 0c-13.376 0-24.256 10.88-24.256 24.256s10.88 24.256 24.256 24.256h183.968l-395.136 395.136c-4.544 4.544-7.072 10.72-7.072 17.184l0.992 436.544c0 13.376 10.88 24.256 24.256 24.256s24.256-10.88 24.256-24.256l-0.992-426.496 388.032-388.032v183.968c0 13.376 10.88 24.256 24.256 24.256s24.256-10.88 24.256-24.256v-242.528c0-13.376-10.88-24.256-24.256-24.256h-242.56zM432.128 346.624l-298.112-298.112h183.968c13.376 0 24.256-10.88 24.256-24.256s-10.88-24.256-24.256-24.256h-242.528c-13.376 0-24.256 10.88-24.256 24.256v242.528c0 13.376 10.88 24.256 24.256 24.256s24.256-10.88 24.256-24.256v-183.968l298.112 298.112c4.768 4.768 10.976 7.072 17.184 7.072s12.416-2.368 17.184-7.072c9.472-9.472 9.472-24.832 0-34.304h-0.064z" />
<glyph unicode="&#xe91a;" glyph-name="cone" d="M919.040 217.728l-816.64 195.744v151.904l816.64 195.776v-543.424zM385.76 231.648l-178.528 39.936-0.576 64.256 205.056-49.152-25.952-55.040zM960.512 813.728c-6.208 4.864-14.4 6.56-21.824 4.768l-867.84-208.032c-11.584-2.752-19.648-13.056-19.648-24.896v-192.32c0-11.872 8.096-22.176 19.648-24.928l84.416-20.224 0.864-97.344c0.096-11.872 8.384-22.176 19.968-24.768l218.432-48.8c1.888-0.416 3.744-0.608 5.568-0.608 9.792 0 18.848 5.568 23.136 14.656l39.328 83.2 476.096-114.080c1.952-0.448 3.936-0.704 5.952-0.704 5.696 0 11.328 1.888 15.872 5.536 6.144 4.8 9.728 12.224 9.728 20.064v608.352c0 7.84-3.584 15.264-9.728 20.128v0z" />
<glyph unicode="&#xe91b;" glyph-name="credit-card" d="M834.56 261.12h46.080v-46.080h-46.080v46.080zM650.24 261.12h138.24v-46.080h-138.24v46.080zM512 261.12h92.16v-46.080h-92.16v46.080zM903.68 768h-783.36c-38.112 0-69.12-31.008-69.12-69.12v-506.88c0-38.112 31.008-69.12 69.12-69.12h783.36c38.112 0 69.12 31.008 69.12 69.12v506.88c0 38.112-31.008 69.12-69.12 69.12zM120.32 721.92h783.36c12.704 0 23.040-10.336 23.040-23.040v-23.040h-829.44v23.040c0 12.704 10.336 23.040 23.040 23.040zM926.72 629.76v-138.24h-829.44v138.24h829.44zM903.68 168.96h-783.36c-12.704 0-23.040 10.336-23.040 23.040v253.44h829.44v-253.44c0-12.704-10.336-23.040-23.040-23.040z" />
<glyph unicode="&#xe91c;" glyph-name="delete" d="M661.408 446.336l130.912 130.912c9.664 9.664 9.664 25.344 0 34.976s-25.344 9.664-34.976 0l-130.912-130.912-130.912 130.912c-9.664 9.664-25.344 9.664-34.976 0s-9.664-25.344 0-34.976l130.912-130.912-130.912-130.912c-9.664-9.664-9.664-25.344 0-34.976 4.864-4.864 11.168-7.232 17.504-7.232s12.672 2.432 17.504 7.232l130.912 130.912 130.912-130.912c4.864-4.864 11.168-7.232 17.504-7.232s12.672 2.432 17.504 7.232c9.664 9.664 9.664 25.344 0 34.976l-131.008 130.912zM898.592 124.704h-544.288c-34.848 0-77.888 20.192-100.16 46.912l-184.064 220.864c-25.184 30.176-25.184 77.472 0 107.712l184.064 220.864c22.272 26.784 65.376 46.912 100.16 46.912h544.288c40.928 0 74.208-33.312 74.208-74.208v-494.784c0-40.928-33.312-74.208-74.208-74.208v-0.064zM354.304 718.464c-19.84 0-49.44-13.856-62.144-29.088l-184.064-220.864c-9.856-11.84-9.856-32.512 0-44.32l184.064-220.864c12.704-15.232 42.304-29.088 62.144-29.088h544.288c13.664 0 24.736 11.072 24.736 24.736v494.784c0 13.664-11.072 24.736-24.736 24.736h-544.288z" />
<glyph unicode="&#xe91d;" glyph-name="document-add" d="M204.8 52.16h614.4v559.52h-233.152c-14.144 0-25.6 11.424-25.6 25.6v233.12h-355.648v-818.24zM797.696 662.88l-186.048 186.016v-186.016h186.048zM852.544 680.384c11.52-11.456 17.856-26.784 17.856-43.104v-610.72c0-14.144-11.456-25.6-25.6-25.6h-665.6c-14.144 0-25.6 11.456-25.6 25.6v869.44c0 14.176 11.456 25.6 25.6 25.6h406.848c16.288 0 31.584-6.304 43.072-17.76l223.424-223.424zM603.84 464.352c12.736 0 23.040-10.304 23.040-23.040 0-12.704-10.304-22.976-23.040-22.976h-69.12v-69.184c0-12.704-10.336-23.040-23.040-23.040s-23.040 10.336-23.040 23.040v69.184h-69.12c-12.736 0-23.040 10.304-23.040 22.976 0 12.736 10.304 23.040 23.040 23.040h69.12v69.184c0 12.704 10.336 22.976 23.040 22.976s23.040-10.304 23.040-22.976v-69.184h69.12z" />
<glyph unicode="&#xe91e;" glyph-name="document-check" d="M665.76 530.432c10.624 9.216 27.616 9.216 39.328-1.024 10.624-9.216 10.624-25.6 0-35.84l-212.512-204.8c-5.312-5.12-11.68-7.168-19.136-7.168s-13.824 2.048-19.136 7.168l-106.272 102.4c-10.624 9.216-10.624 25.6 0 35.84 9.568 10.24 26.56 10.24 37.184 0l87.136-83.968 193.376 187.392zM204.8 52.16h614.4v559.52h-233.152c-14.144 0-25.6 11.424-25.6 25.6v233.12h-355.648v-818.24zM797.696 662.88l-186.048 186.016v-186.016h186.048zM852.544 680.384c11.52-11.456 17.856-26.784 17.856-43.104v-610.72c0-14.144-11.456-25.6-25.6-25.6h-665.6c-14.144 0-25.6 11.456-25.6 25.6v869.44c0 14.176 11.456 25.6 25.6 25.6h406.848c16.288 0 31.584-6.304 43.072-17.76l223.424-223.424z" />
<glyph unicode="&#xe91f;" glyph-name="document-e-sign" d="M204.8 52.16h614.4v559.52h-233.152c-14.144 0-25.6 11.424-25.6 25.6v233.12h-355.648v-818.24zM797.696 662.88l-186.048 186.016v-186.016h186.048zM852.544 680.384c11.52-11.456 17.856-26.784 17.856-43.104v-610.72c0-14.144-11.456-25.6-25.6-25.6h-665.6c-14.144 0-25.6 11.456-25.6 25.6v869.44c0 14.176 11.456 25.6 25.6 25.6h406.848c16.288 0 31.584-6.304 43.072-17.76l223.424-223.424zM512 176.608c64.768 0 125.024 32.064 161.28 85.76 8 11.712 4.864 27.648-6.816 35.52-11.68 7.936-27.584 4.8-35.584-6.848-26.72-39.584-71.168-63.232-118.88-63.232-79.040 0-143.424 64.352-143.424 143.424s64.352 143.36 143.424 143.36c70.336 0 129.024-50.88 141.12-117.76h-186.624c-14.144 0-25.6-11.456-25.6-25.6 0-14.176 11.456-25.6 25.6-25.6h214.528c14.144 0 25.6 11.424 25.6 25.6 0 107.264-87.296 194.56-194.624 194.56s-194.624-87.296-194.624-194.56c0-107.328 87.296-194.624 194.624-194.624z" />
<glyph unicode="&#xe920;" glyph-name="document-image" d="M441.952 727.584h-145.504c-13.376 0-24.256 10.88-24.256 24.256s10.88 24.256 24.256 24.256h145.504c13.376 0 24.256-10.88 24.256-24.256s-10.88-24.256-24.256-24.256zM441.952 630.56h-145.504c-13.376 0-24.256 10.88-24.256 24.256s10.88 24.256 24.256 24.256h145.504c13.376 0 24.256-10.88 24.256-24.256s-10.88-24.256-24.256-24.256zM441.952 533.568h-145.504c-13.376 0-24.256 10.88-24.256 24.256s10.88 24.256 24.256 24.256h145.504c13.376 0 24.256-10.88 24.256-24.256s-10.88-24.256-24.256-24.256zM441.952 436.544h-145.504c-13.376 0-24.256 10.88-24.256 24.256s10.88 24.256 24.256 24.256h145.504c13.376 0 24.256-10.88 24.256-24.256s-10.88-24.256-24.256-24.256zM732.96 339.552h-436.544c-13.376 0-24.256 10.88-24.256 24.256s10.88 24.256 24.256 24.256h436.544c13.376 0 24.256-10.88 24.256-24.256s-10.88-24.256-24.256-24.256zM732.96 242.528h-436.544c-13.376 0-24.256 10.88-24.256 24.256s10.88 24.256 24.256 24.256h436.544c13.376 0 24.256-10.88 24.256-24.256s-10.88-24.256-24.256-24.256zM732.96 145.504h-436.544c-13.376 0-24.256 10.88-24.256 24.256s10.88 24.256 24.256 24.256h436.544c13.376 0 24.256-10.88 24.256-24.256s-10.88-24.256-24.256-24.256zM732.96 436.544h-194.016c-13.376 0-24.256 10.88-24.256 24.256v291.040c0 13.376 10.88 24.256 24.256 24.256h194.016c13.376 0 24.256-10.88 24.256-24.256v-291.040c0-13.376-10.88-24.256-24.256-24.256zM563.2 485.056h145.504v242.528h-145.504v-242.528zM797.92 0h-571.584c-40.128 0-72.768 32.64-72.768 72.768v776.096c0 40.128 32.64 72.768 72.768 72.768h571.584c40.128 0 72.768-32.64 72.768-72.768v-776.096c0-40.128-32.64-72.768-72.768-72.768zM226.368 873.088c-13.376 0-24.256-10.88-24.256-24.256v-776.096c0-13.376 10.88-24.256 24.256-24.256h571.584c13.376 0 24.256 10.88 24.256 24.256v776.096c0 13.376-10.88 24.256-24.256 24.256h-571.584z" />
<glyph unicode="&#xe921;" glyph-name="document-pdf" d="M611.648 848.864v-186.016h186.016l-186.016 186.016zM852.544 680.352c11.584-11.616 17.856-26.88 17.856-43.104v-308.288c0-14.176-11.456-25.6-25.6-25.6-14.176 0-25.6 11.424-25.6 25.6v282.688h-233.152c-14.144 0-25.6 11.456-25.6 25.6v233.152h-355.648v-541.44c0-14.176-11.456-25.6-25.6-25.6-14.176 0-25.6 11.424-25.6 25.6v567.040c0 14.144 11.424 25.6 25.6 25.6h406.848c16.032 0 31.68-6.496 43.072-17.824l223.424-223.424zM453.792 50.24h62.464c42.048 0 76.288 34.24 76.288 76.352s-34.24 76.352-76.288 76.352h-62.464v-152.672zM516.256-0.96h-88.064c-14.144 0-25.6 11.456-25.6 25.6v203.872c0 14.176 11.456 25.6 25.6 25.6h88.064c70.304 0 127.488-57.184 127.488-127.552s-57.184-127.552-127.488-127.552zM295.584 118.336c23.296 0 42.304 19.008 42.304 42.304s-19.008 42.304-42.304 42.304h-90.784v-84.576h90.784zM295.584 254.144c51.552 0 93.504-41.92 93.504-93.504s-41.92-93.504-93.504-93.504h-90.784v-42.496c0-14.144-11.456-25.6-25.6-25.6-14.176 0-25.6 11.456-25.6 25.6v203.872c0 14.176 11.424 25.6 25.6 25.6h116.384zM845.088 118.336c14.144 0 25.6-11.456 25.6-25.6s-11.456-25.6-25.6-25.6h-134.976v-42.496c0-14.144-11.424-25.6-25.6-25.6-14.144 0-25.6 11.456-25.6 25.6v203.872c0 14.176 11.456 25.6 25.6 25.6h160.576c14.144 0 25.6-11.424 25.6-25.6 0-14.144-11.456-25.6-25.6-25.6h-134.976v-84.576h134.976z" />
<glyph unicode="&#xe922;" glyph-name="document-sign" d="M442.88 184.288c-6.176 0-12.224 2.496-16.576 7.040-5.728 5.888-7.84 14.432-5.568 22.304l46.080 161.28c1.056 3.776 3.072 7.2 5.856 9.952l345.6 345.6c8.992 8.992 23.584 8.992 32.576 0l115.2-115.2c8.928-8.928 8.992-23.424 0.128-32.448l-345.6-352.096c-3.008-3.040-6.784-5.216-10.976-6.208l-161.28-39.584c-1.792-0.448-3.648-0.64-5.472-0.64h0.032zM509.472 356.544l-33.536-117.376 116.352 28.576 325.024 331.136-82.752 82.752-325.056-325.12zM719.392 46.048h-599.072c-38.112 0-69.12 31.008-69.12 69.12v737.312c0 38.112 31.008 69.12 69.12 69.12h599.072c38.112 0 69.12-31.008 69.12-69.12v-92.16c0-12.704-10.336-23.040-23.040-23.040s-23.040 10.336-23.040 23.040v92.16c0 12.704-10.336 23.040-23.040 23.040h-599.072c-12.704 0-23.040-10.336-23.040-23.040v-737.312c0-12.704 10.336-23.040 23.040-23.040h599.072c12.704 0 23.040 10.336 23.040 23.040v184.32c0 12.704 10.336 23.040 23.040 23.040s23.040-10.336 23.040-23.040v-184.32c0-38.112-31.008-69.12-69.12-69.12zM535.072 737.28h-322.56c-12.704 0-23.040 10.336-23.040 23.040s10.336 23.040 23.040 23.040h322.56c12.704 0 23.040-10.336 23.040-23.040s-10.336-23.040-23.040-23.040zM627.232 645.12h-414.72c-12.704 0-23.040 10.336-23.040 23.040s10.336 23.040 23.040 23.040h414.72c12.704 0 23.040-10.336 23.040-23.040s-10.336-23.040-23.040-23.040zM581.152 552.96h-368.64c-12.704 0-23.040 10.336-23.040 23.040s10.336 23.040 23.040 23.040h368.64c12.704 0 23.040-10.336 23.040-23.040s-10.336-23.040-23.040-23.040zM442.88 460.768h-230.4c-12.704 0-23.040 10.336-23.040 23.040s10.336 23.040 23.040 23.040h230.4c12.704 0 23.040-10.336 23.040-23.040s-10.336-23.040-23.040-23.040zM350.72 184.288h-138.24c-12.704 0-23.040 10.336-23.040 23.040s10.336 23.040 23.040 23.040h138.24c12.704 0 23.040-10.336 23.040-23.040s-10.336-23.040-23.040-23.040z" />
<glyph unicode="&#xe923;" glyph-name="document" d="M611.648 848.864v-186.016h186.016l-186.016 186.016zM635.040 101.056c-11.68-57.056-62.24-100.128-122.688-100.128-58.4 0-107.584 40.16-121.408 94.272-13.888-55.36-64.064-96.512-123.744-96.512h-88c-14.144 0-25.6 11.424-25.6 25.6v203.84c0 14.176 11.456 25.6 25.6 25.6h88c59.648 0 109.856-41.12 123.744-96.512 13.824 54.144 62.976 94.304 121.408 94.304 60.448 0 111.040-43.072 122.688-100.16 11.68 57.088 62.24 100.16 122.688 100.16 48.32 0 91.488-27.328 112.64-71.232 6.144-12.736 0.832-28.064-11.936-34.208-12.704-6.080-28-0.864-34.144 11.968-12.544 26.016-38.048 42.24-66.56 42.24-40.864 0-74.048-33.216-74.048-74.144 0-40.8 33.184-74.048 74.048-74.048 28.512 0 54.016 16.128 66.56 42.176 6.144 12.736 21.408 18.112 34.144 11.968s18.080-21.408 11.936-34.144c-21.088-43.968-64.32-71.232-112.64-71.232-60.448 0-111.040 43.072-122.688 100.128zM852.544 680.352c11.584-11.616 17.856-26.88 17.856-43.104v-308.288c0-14.176-11.456-25.6-25.6-25.6-14.176 0-25.6 11.424-25.6 25.6v282.688h-233.152c-14.144 0-25.6 11.456-25.6 25.6v233.152h-355.648v-541.44c0-14.176-11.456-25.6-25.6-25.6-14.176 0-25.6 11.424-25.6 25.6v567.040c0 14.144 11.424 25.6 25.6 25.6h406.848c16.032 0 31.68-6.496 43.072-17.824l223.424-223.424zM204.8 49.888h62.4c42.080 0 76.352 34.208 76.352 76.288 0 42.144-34.24 76.352-76.352 76.352h-62.4v-152.64zM512.352 200.288c-40.864 0-74.080-33.184-74.080-74.080 0-40.8 33.216-74.080 74.080-74.080s74.048 33.28 74.048 74.080c0 40.896-33.184 74.080-74.048 74.080z" />
<glyph unicode="&#xe924;" glyph-name="dollar-bills" d="M609.024 382.656c13.376 0 24.256-10.88 24.256-24.256v-97.024c0-13.376-10.88-24.256-24.256-24.256h-72.768v-24.256c0-13.376-10.88-24.256-24.256-24.256s-24.256 10.88-24.256 24.256v24.256h-72.768c-13.376 0-24.256 10.88-24.256 24.256s10.88 24.256 24.256 24.256h169.76v48.512h-169.76c-13.376 0-24.256 10.88-24.256 24.256v97.024c0 13.376 10.88 24.256 24.256 24.256h72.768v24.256c0 13.376 10.88 24.256 24.256 24.256s24.256-10.88 24.256-24.256v-24.256h72.768c13.376 0 24.256-10.88 24.256-24.256s-10.88-24.256-24.256-24.256h-169.76v-48.512h169.76zM948.544 91.616c13.376 0 24.256 10.88 24.256 24.256v485.056c0 13.376-10.88 24.256-24.256 24.256h-873.088c-13.376 0-24.256-10.88-24.256-24.256v-485.056c0-13.376 10.88-24.256 24.256-24.256h873.088zM99.712 140.128v436.544h824.576v-436.544h-824.576zM900.032 673.696h-776.096c-13.376 0-24.256 10.88-24.256 24.256s10.88 24.256 24.256 24.256h776.096c13.376 0 24.256-10.88 24.256-24.256s-10.88-24.256-24.256-24.256zM851.552 770.688h-679.072c-13.376 0-24.256 10.88-24.256 24.256s10.88 24.256 24.256 24.256h679.072c13.376 0 24.256-10.88 24.256-24.256s-10.88-24.256-24.256-24.256z" />
<glyph unicode="&#xe925;" glyph-name="dollar-house" d="M604.16 411.808c12.704 0 23.040-10.336 23.040-23.040v-92.16c0-12.704-10.336-23.040-23.040-23.040h-69.12v-23.040c0-12.704-10.336-23.040-23.040-23.040s-23.040 10.336-23.040 23.040v23.040h-69.12c-12.704 0-23.040 10.336-23.040 23.040s10.336 23.040 23.040 23.040h161.28v46.080h-161.28c-12.704 0-23.040 10.336-23.040 23.040v92.16c0 12.704 10.336 23.040 23.040 23.040h69.12v23.040c0 12.704 10.336 23.040 23.040 23.040s23.040-10.336 23.040-23.040v-23.040h69.12c12.704 0 23.040-10.336 23.040-23.040s-10.336-23.040-23.040-23.040h-161.28v-46.080h161.28zM74.24 411.808c-5.536 0-11.072 1.984-15.424 5.952-9.44 8.512-10.176 23.072-1.6 32.544l406.848 449.664c12.64 13.952 29.664 21.664 48 21.664 18.304 0 35.328-7.68 48-21.664l136.64-151.008-0.32 54.368c-0.032 6.144 2.4 12.032 6.688 16.352s10.176 6.784 16.352 6.784h92.16c12.704 0 23.040-10.336 23.040-23.040v-206.976l132.288-146.208c8.512-9.44 7.776-24-1.6-32.544s-24-7.776-32.544 1.6l-138.24 152.8c-3.84 4.224-5.952 9.76-5.952 15.424v192.8h-45.952l0.512-91.52c0.032-9.536-5.792-18.144-14.688-21.6s-19.040-1.056-25.44 6.048l-177.088 195.712c-3.776 4.192-8.704 6.496-13.824 6.496s-10.048-2.304-13.824-6.496l-406.848-449.664c-4.576-5.024-10.816-7.616-17.088-7.616l-0.096 0.128zM765.44 43.168h-506.88c-38.112 0-69.12 31.008-69.12 69.12v368.64c0 12.704 10.336 23.040 23.040 23.040s23.040-10.336 23.040-23.040v-368.64c0-12.704 10.336-23.040 23.040-23.040h506.88c12.704 0 23.040 10.336 23.040 23.040v368.64c0 12.704 10.336 23.040 23.040 23.040s23.040-10.336 23.040-23.040v-368.64c0-38.112-31.008-69.12-69.12-69.12z" />
<glyph unicode="&#xe926;" glyph-name="earth" d="M837.824 786.624c-87.040 87.040-202.752 134.976-325.824 134.976s-238.784-47.936-325.824-134.976c-87.040-87.040-134.976-202.752-134.976-325.824s47.936-238.784 134.976-325.824c87.040-87.040 202.752-134.976 325.824-134.976s238.784 47.936 325.824 134.976c87.040 87.040 134.976 202.752 134.976 325.824s-47.936 238.784-134.976 325.824v0zM898.944 610.048c-8.992 16.16-31.552 23.872-61.056 33.92-31.648 10.784-42.848 43.328-55.808 81.024-11.232 32.704-22.848 66.496-50.464 87.52 75.52-47.328 134.752-118.272 167.328-202.432v0zM769.632 452c3.488-31.2 7.104-63.488-31.648-107.008-10.464-11.744-16.576-28.096-23.072-45.44-15.008-40.128-29.216-78.048-89.664-78.624-1.696 2.016-6.496 9.664-10.784 33.792-3.904 22.208-6.176 50.976-8.608 81.344-3.68 46.624-7.872 99.52-19.392 143.392-14.752 56.064-39.488 89.216-75.616 101.28-15.744 5.248-31.872 7.84-49.216 7.84-12.8 0-24.416-1.376-34.656-2.592-7.968-0.928-15.52-1.856-21.888-1.856-10.784 0-23.008 0-38.048 34.464-21.6 49.536-5.664 128.928 57.792 170.816 34.784 22.944 58.784 32.768 80.256 32.768 17.152 0 35.616-5.952 61.824-19.968 30.976-16.512 55.264-18.624 72.96-18.624 7.008 0 13.376 0.384 19.488 0.736 5.152 0.32 9.984 0.608 14.528 0.608 10.144 0 18.336-1.344 27.968-7.872 17.728-12.128 26.944-38.88 36.672-67.2 14.752-42.944 31.488-91.616 84.544-109.664 7.136-2.432 19.392-6.592 28.096-10.24-7.52-7.744-20.032-18.944-32.352-29.92-7.936-7.104-16.896-15.104-26.88-24.192-28.768-26.208-25.344-56.896-22.304-83.968v0.032zM97.312 464.352c4.992-0.864 10.336-1.92 15.84-3.072 25.888-5.536 38.016-10.496 43.328-13.312-2.432-4.736-7.36-11.744-10.656-16.352-11.392-16.16-25.568-36.32-20.192-58.464 3.648-14.976 0.544-33.312-4.736-50.272-15.296 43.232-23.648 89.664-23.648 138.048 0 1.184 0.032 2.336 0.032 3.552v-0.096zM512 46.080c-157.824 0-295.36 88.672-365.408 218.752 12.064 23.008 34.464 73.856 24 118.368 0.736 4.48 8.352 15.264 12.896 21.76 12.48 17.728 28.032 39.776 16.512 63.136-8.064 16.416-29.664 27.456-72.16 37.056-9.856 2.208-19.456 4-27.616 5.44 24.704 205.28 199.904 364.896 411.712 364.896 72.704 0 141.088-18.848 200.544-51.84-14.688 6.4-28.032 7.424-38.72 7.424-5.856 0-11.648-0.32-17.28-0.704-5.472-0.32-11.136-0.64-16.768-0.64-13.088 0-29.408 1.568-51.232 13.216-33.376 17.728-58.336 25.344-83.488 25.344-31.136 0-62.752-12.064-105.664-40.352-37.088-24.48-65.024-61.888-78.656-105.44-13.312-42.432-11.904-85.888 4-122.304 18.752-42.944 43.488-62.112 80.256-62.112 9.088 0 17.92 1.056 27.264 2.176 9.44 1.12 19.168 2.272 29.248 2.272 12.48 0 23.488-1.76 34.592-5.44 20.224-6.784 35.168-29.44 45.664-69.312s14.464-90.592 18.016-135.296c2.944-37.312 5.728-72.544 11.84-99.104 3.744-16.128 8.512-28.384 14.752-37.472 9.248-13.536 22.528-21.024 37.376-21.024 40.736 0 73.28 13.12 96.736 39.040 19.488 21.504 29.44 48.096 37.472 69.504 4.704 12.576 9.6 25.632 14.336 30.976 52.384 58.848 47.008 107.328 43.040 142.752-2.912 25.984-2.944 35.2 7.552 44.8 9.76 8.896 18.656 16.864 26.496 23.872 16.736 14.944 28.8 25.728 37.28 34.944 5.792 6.368 19.456 21.248 15.68 39.872-0.032 0.192-0.096 0.32-0.096 0.512 15.808-43.808 24.416-91.040 24.416-140.256 0-228.704-186.016-414.72-414.72-414.72h0.096z" />
<glyph unicode="&#xe927;" glyph-name="exit-circle" d="M734.944 272.128l-188.64 188.64 188.64 188.64c9.472 9.472 9.472 24.832 0 34.304s-24.832 9.472-34.304 0l-188.64-188.64-188.64 188.64c-9.472 9.472-24.832 9.472-34.304 0s-9.472-24.832 0-34.304l188.64-188.64-188.64-188.64c-9.472-9.472-9.472-24.832 0-34.304s24.832-9.472 34.304 0l188.64 188.64 188.64-188.64c9.472-9.472 24.832-9.472 34.304 0s9.472 24.832 0 34.304zM972.864 460.768c0 123.072-47.936 238.784-135.008 325.856s-202.752 134.976-325.856 135.008c-123.104 0.032-238.784-47.936-325.824-134.976s-134.976-202.752-135.008-325.856c-0.032-123.104 47.936-238.784 135.008-325.856s202.752-134.976 325.856-135.008c123.104-0.032 238.784 47.936 325.856 135.008s134.976 202.752 134.976 325.824v0zM220.448 169.216c-160.768 160.768-160.768 422.336 0 583.104s422.336 160.768 583.104 0c160.768-160.768 160.768-422.336 0-583.104s-422.336-160.768-583.104 0z" />
<glyph unicode="&#xe928;" glyph-name="exit-small" d="M734.944 272.128l-188.64 188.64 188.64 188.64c9.472 9.472 9.472 24.832 0 34.304s-24.832 9.472-34.304 0l-188.64-188.64-188.64 188.64c-9.472 9.472-24.832 9.472-34.304 0s-9.472-24.832 0-34.304l188.64-188.64-188.64-188.64c-9.472-9.472-9.472-24.832 0-34.304s24.832-9.472 34.304 0l188.64 188.64 188.64-188.64c9.472-9.472 24.832-9.472 34.304 0s9.472 24.832 0 34.304z" />
<glyph unicode="&#xe929;" glyph-name="exit" d="M550.912 460.864l311.296 311.296c10.752 10.752 10.752 28.224 0 38.976s-28.224 10.752-38.976 0l-311.296-311.296-311.296 311.296c-10.752 10.752-28.224 10.752-38.976 0s-10.752-28.224 0-38.976l311.296-311.296-311.296-311.296c-10.752-10.752-10.752-28.224 0-38.976 5.408-5.408 12.448-8.064 19.52-8.064s14.112 2.688 19.52 8.064l311.296 311.296 311.296-311.296c5.408-5.408 12.448-8.064 19.52-8.064s14.112 2.688 19.52 8.064c10.752 10.752 10.752 28.224 0 38.976l-311.424 311.296z" />
<glyph unicode="&#xe92a;" glyph-name="expand-arrows" d="M970.848 905.76c1.28-3.136 1.952-6.464 1.952-9.728v-296.864c0-14.176-11.456-25.6-25.6-25.6s-25.6 11.424-25.6 25.6v235.072l-289.728-289.792c-5.024-4.96-11.584-7.488-18.112-7.488s-13.056 2.496-18.080 7.488c-9.984 10.048-9.984 26.208 0 36.192l289.728 289.792h-235.008c-14.144 0-25.6 11.424-25.6 25.6 0 14.144 11.456 25.6 25.6 25.6h296.8c3.392 0 6.656-0.704 9.792-1.984 6.304-2.624 11.264-7.616 13.888-13.888zM53.152 15.808c-1.216 3.168-1.952 6.464-1.952 9.792v296.864c0 14.176 11.456 25.6 25.6 25.6s25.6-11.424 25.6-25.6v-235.072l289.728 289.728c5.024 4.96 11.584 7.488 18.112 7.488s13.056-2.496 18.080-7.488c9.984-10.048 9.984-26.208 0-36.192l-289.728-289.728h235.072c14.144 0 25.6-11.424 25.6-25.6 0-14.144-11.456-25.6-25.6-25.6h-296.864c-3.392 0-6.656 0.672-9.792 1.952-6.304 2.624-11.264 7.616-13.888 13.888z" />
<glyph unicode="&#xe92b;" glyph-name="export" d="M793.6 0h-716.8c-14.144 0-25.6 11.456-25.6 25.6v716.8c0 14.144 11.456 25.6 25.6 25.6h582.848c14.144 0 25.6-11.456 25.6-25.6s-11.456-25.6-25.6-25.6h-557.248v-665.6h665.6v561.856c0 14.144 11.456 25.6 25.6 25.6s25.6-11.456 25.6-25.6v-587.456c0-14.144-11.456-25.6-25.6-25.6zM970.848 905.76c1.28-3.136 1.952-6.464 1.952-9.792v-296.864c0-14.144-11.456-25.6-25.6-25.6s-25.6 11.456-25.6 25.6v235.072l-357.056-357.056c-4.96-4.96-11.52-7.488-18.080-7.488s-13.12 2.496-18.112 7.488c-9.984 10.048-9.984 26.208 0 36.192l357.056 357.056h-235.008c-14.144 0-25.6 11.456-25.6 25.6s11.456 25.6 25.6 25.6h296.8c3.392 0 6.656-0.672 9.792-1.952 6.304-2.624 11.264-7.584 13.888-13.888z" />
<glyph unicode="&#xe92c;" glyph-name="external-link" d="M793.6 0h-716.8c-14.144 0-25.6 11.456-25.6 25.6v716.8c0 14.144 11.456 25.6 25.6 25.6h582.848c14.144 0 25.6-11.456 25.6-25.6s-11.456-25.6-25.6-25.6h-557.248v-665.6h665.6v561.856c0 14.144 11.456 25.6 25.6 25.6s25.6-11.456 25.6-25.6v-587.456c0-14.144-11.456-25.6-25.6-25.6zM970.848 905.792c1.28-3.136 1.952-6.464 1.952-9.792v-296.864c0-14.144-11.456-25.6-25.6-25.6s-25.6 11.456-25.6 25.6v235.072l-357.056-357.056c-4.96-4.96-11.52-7.488-18.080-7.488s-13.12 2.496-18.112 7.488c-9.984 10.048-9.984 26.208 0 36.192l357.056 357.056h-235.008c-14.144 0-25.6 11.456-25.6 25.6s11.456 25.6 25.6 25.6h296.8c3.392 0 6.656-0.672 9.792-1.952 6.304-2.624 11.264-7.584 13.888-13.888v0z" />
<glyph unicode="&#xe92d;" glyph-name="eye" d="M966.88 478.816c-2.176 2.432-54.464 60.128-136.224 118.528-48.256 34.464-96.768 61.92-144.224 81.696-60.128 25.056-118.848 37.792-174.464 37.792s-114.336-12.704-174.464-37.792c-47.456-19.776-95.968-47.264-144.224-81.696-81.728-58.368-134.048-116.128-136.224-118.528-7.872-8.768-7.872-22.080 0-30.816 2.176-2.432 54.464-60.128 136.224-118.528 48.256-34.464 96.768-61.92 144.224-81.696 60.128-25.056 118.848-37.792 174.464-37.792s114.336 12.704 174.464 37.792c47.456 19.776 95.968 47.264 144.224 81.696 81.76 58.368 134.048 116.128 136.224 118.528 7.872 8.768 7.872 22.080 0 30.816v0zM630.592 650.592c41.792-35.168 65.696-86.304 65.696-141.088 0-101.664-82.656-184.32-184.32-184.32s-184.32 82.656-184.32 184.32c0 54.752 23.904 105.92 65.696 141.088 37.888 12.352 77.92 20.192 118.592 20.192s80.736-7.84 118.592-20.192v0zM803.072 366.368c-70.624-50.304-178.464-110.304-291.072-110.304s-220.448 60-291.072 110.304c-53.312 37.984-94.080 76.384-114.688 97.056 20.608 20.64 61.376 59.040 114.688 97.056 24.416 17.408 53.28 35.936 85.248 52.768-16-31.712-24.576-67.040-24.576-103.712 0-127.040 103.36-230.4 230.4-230.4s230.4 103.36 230.4 230.4c0 36.672-8.576 72.032-24.544 103.712 31.968-16.832 60.832-35.392 85.248-52.768 53.312-37.984 94.080-76.384 114.688-97.056-20.608-20.64-61.376-59.040-114.688-97.056z" />
<glyph unicode="&#xe92e;" glyph-name="facebook" d="M919.072 204.192c0-82.944-67.488-150.464-150.464-150.464h-211.328v348.928h177.6c14.88 0 26.848 12.032 26.848 26.848 0 14.88-11.968 26.848-26.848 26.848h-177.6v110.976c0 61.728 41.472 106.592 98.624 106.592h78.976c14.88 0 26.848 12.032 26.848 26.848 0 14.88-11.968 26.848-26.848 26.848h-78.976c-86.88 0-152.352-68.928-152.352-160.32v-110.976h-114.688c-14.816 0-26.848-11.968-26.848-26.848 0-14.816 12.032-26.848 26.848-26.848h114.688v-348.928h-248.192c-82.944 0-150.432 67.52-150.432 150.464v513.248c0 82.944 67.488 150.432 150.432 150.432h513.248c83.008 0 150.464-67.488 150.464-150.432v-513.248zM768.608 921.6h-513.248c-112.608 0-204.128-91.584-204.128-204.128v-513.248c0-112.608 91.552-204.192 204.128-204.192h513.248c112.608 0 204.192 91.584 204.192 204.192v513.248c0 112.544-91.584 204.128-204.192 204.128v0z" />
<glyph unicode="&#xe92f;" glyph-name="filters" d="M908.8 552.96c38.112 0 69.12 31.008 69.12 69.12s-31.008 69.12-69.12 69.12h-92.16c-38.112 0-69.12-31.008-69.12-69.12s31.008-69.12 69.12-69.12h92.16zM816.64 645.12h92.16c12.704 0 23.040-10.336 23.040-23.040s-10.336-23.040-23.040-23.040h-92.16c-12.704 0-23.040 10.336-23.040 23.040s10.336 23.040 23.040 23.040zM166.4 0c-12.704 0-23.040 10.336-23.040 23.040v368.64c0 12.704 10.336 23.040 23.040 23.040s23.040-10.336 23.040-23.040v-368.64c0-12.704-10.336-23.040-23.040-23.040zM166.4 645.12c-12.704 0-23.040 10.336-23.040 23.040v230.4c0 12.704 10.336 23.040 23.040 23.040s23.040-10.336 23.040-23.040v-230.4c0-12.704-10.336-23.040-23.040-23.040zM212.48 460.8c38.112 0 69.12 31.008 69.12 69.12s-31.008 69.12-69.12 69.12h-92.16c-38.112 0-69.12-31.008-69.12-69.12s31.008-69.12 69.12-69.12h92.16zM120.32 552.96h92.16c12.704 0 23.040-10.336 23.040-23.040s-10.336-23.040-23.040-23.040h-92.16c-12.704 0-23.040 10.336-23.040 23.040s10.336 23.040 23.040 23.040zM540.16 0c-12.704 0-23.040 10.336-23.040 23.040v184.32c0 12.704 10.336 23.040 23.040 23.040s23.040-10.336 23.040-23.040v-184.32c0-12.704-10.336-23.040-23.040-23.040zM540.16 460.8c-12.704 0-23.040 10.336-23.040 23.040v414.72c0 12.704 10.336 23.040 23.040 23.040s23.040-10.336 23.040-23.040v-414.72c0-12.704-10.336-23.040-23.040-23.040zM586.24 276.48c38.112 0 69.12 31.008 69.12 69.12s-31.008 69.12-69.12 69.12h-92.16c-38.112 0-69.12-31.008-69.12-69.12s31.008-69.12 69.12-69.12h92.16zM494.080 368.64h92.16c12.704 0 23.040-10.336 23.040-23.040s-10.336-23.040-23.040-23.040h-92.16c-12.704 0-23.040 10.336-23.040 23.040s10.336 23.040 23.040 23.040zM862.72 0c-12.704 0-23.040 10.336-23.040 23.040v460.8c0 12.704 10.336 23.040 23.040 23.040s23.040-10.336 23.040-23.040v-460.8c0-12.704-10.336-23.040-23.040-23.040zM862.72 737.28c-12.704 0-23.040 10.336-23.040 23.040v138.24c0 12.704 10.336 23.040 23.040 23.040s23.040-10.336 23.040-23.040v-138.24c0-12.704-10.336-23.040-23.040-23.040z" />
<glyph unicode="&#xe930;" glyph-name="gauge" d="M668.384 773.504l-0.288-0.064c11.968-6.016 16.832-20.576 10.88-32.544l-15.328-30.656c0 0 0-0.064 0-0.064s0-0.064 0-0.064l-65.056-130.080c0 0 0.064-0.064 0-0.064s-0.064-0.064-0.064-0.064l-34.4-68.832c12.608-13.088 20.416-30.848 20.416-50.432 0-40.128-32.64-72.768-72.768-72.768s-72.768 32.64-72.768 72.768c0 40.128 32.64 72.768 72.768 72.768 3.040 0 6.016-0.192 8.96-0.576l22.496 44.96c-10.176 2.752-20.704 4.128-31.488 4.128-66.848 0-121.248-54.432-121.248-121.248 0-51.328 32.512-97.312 80.864-114.368 12.672-4.448 19.264-18.336 14.784-30.944-3.488-9.952-12.864-16.16-22.848-16.16-2.72 0-5.44 0.48-8.096 1.408-67.68 23.968-113.152 88.288-113.152 160.128 0 93.6 76.16 169.76 169.76 169.76 18.496 0 36.384-2.848 53.504-8.576l43.712 87.36c-30.848 12.128-63.392 18.24-97.152 18.24-130.816 0-241.504-93.504-263.104-222.304-1.952-11.84-12.224-20.224-23.872-20.224-1.312 0-2.656 0.096-4.032 0.352-13.184 2.24-22.112 14.752-19.872 27.936 12.224 72.704 49.952 139.2 106.272 187.328 56.992 48.64 129.664 75.488 204.704 75.488 41.376 0 81.28-7.872 118.944-23.232l4.896 9.792c6.016 11.968 20.576 16.832 32.544 10.88zM512 145.504c-75.040 0-147.712 26.816-204.704 75.488-56.32 48.128-94.048 114.624-106.272 187.328-2.24 13.184 6.688 25.696 19.872 27.936s25.696-6.688 27.936-19.872c21.632-128.768 132.288-222.304 263.104-222.304 147.104 0 266.784 119.648 266.784 266.784 0 13.376 10.88 24.256 24.256 24.256s24.256-10.88 24.256-24.256c0-173.856-141.44-315.296-315.296-315.296l0.064-0.064zM560.512 299.328c-9.984 0-19.36 6.208-22.848 16.16-4.448 12.608 2.144 26.496 14.784 30.944 48.352 17.088 80.864 63.072 80.864 114.368 0 13.376 10.88 24.256 24.256 24.256s24.256-10.88 24.256-24.256c0-71.84-45.504-136.16-113.152-160.128-2.656-0.928-5.376-1.408-8.096-1.408l-0.064 0.064zM512 436.544c13.376 0 24.256 10.88 24.256 24.256s-10.88 24.256-24.256 24.256c-13.376 0-24.256-10.88-24.256-24.256s10.88-24.256 24.256-24.256zM512 0c-123.104 0-238.784 47.936-325.856 134.944s-134.944 202.752-134.944 325.824c0 123.104 47.936 238.784 134.944 325.856s202.752 134.976 325.856 134.976c123.104 0 238.784-47.936 325.856-134.976s134.944-202.752 134.944-325.856c0-123.104-47.936-238.784-134.944-325.824s-202.752-134.944-325.856-134.944zM512 873.088c-227.328 0-412.288-184.96-412.288-412.288s184.96-412.288 412.288-412.288c227.36 0 412.288 184.96 412.288 412.288s-184.96 412.288-412.288 412.288z" />
<glyph unicode="&#xe931;" glyph-name="google-plus" d="M881.92 634.24c0-14.048-11.424-25.472-25.472-25.472h-107.808v-107.808c0-14.112-11.424-25.472-25.472-25.472-14.112 0-25.472 11.36-25.472 25.472v107.808h-107.808c-14.112 0-25.472 11.424-25.472 25.472s11.36 25.472 25.472 25.472h107.808v107.808c0 14.112 11.36 25.472 25.472 25.472 14.048 0 25.472-11.36 25.472-25.472v-107.808h107.808c14.048 0 25.472-11.424 25.472-25.472v0zM233.984 634.24c0 63.584 51.712 115.36 115.296 115.36s115.36-51.776 115.36-115.36c0-63.584-51.776-115.36-115.36-115.36s-115.296 51.776-115.296 115.36v0zM349.28 467.968c91.712 0 166.304 74.592 166.304 166.304 0 58.080-30.016 109.088-75.2 138.848-14.976 9.824-31.776 16.96-49.568 21.536-13.344 3.456-27.040 5.92-41.536 5.92-91.648 0-166.24-74.592-166.24-166.304 0-57.28 29.088-107.872 73.312-137.824 25.024-16.928 55.072-26.752 87.264-27.872 1.92-0.096 3.712-0.608 5.664-0.608v0zM440.384 773.088c-14.976 9.824-31.808 16.96-49.568 21.536 6.72 42.784 43.456 75.776 88.128 75.776h25.024c14.048 0 25.472-11.424 25.472-25.472 0-14.112-11.424-25.472-25.472-25.472h-25.024c-21.28 0-38.56-17.312-38.56-38.56v-7.808zM524.032 102.144h-200.544c-65.632 0-118.976 53.408-118.976 118.976s53.344 118.976 118.976 118.976h200.544c65.632 0 118.976-53.408 118.976-118.976s-53.344-118.976-118.976-118.976v0zM524.032 391.040h-200.544c-1.888 0-3.616-0.512-5.504-0.544-0.928 0.096-1.792 0.544-2.752 0.544-21.248 0-38.528 17.28-38.528 38.528 0 21.312 17.28 38.624 38.528 38.624h26.496c0.704 0 1.216 0.352 1.888 0.416-32.192 1.12-62.272 10.944-87.264 27.872-18.592-16.416-30.56-40.16-30.56-66.88 0-21.952 8.256-41.888 21.44-57.472-55.264-28.032-93.632-84.864-93.632-150.976 0-93.696 76.224-169.92 169.92-169.92h200.544c93.696 0 169.92 76.224 169.92 169.92 0 93.632-76.224 169.92-169.92 169.92v0z" />
<glyph unicode="&#xe932;" glyph-name="heart" d="M512 51.2c-4.064 0-8.096 1.024-11.776 3.040-4.544 2.496-112.832 62.688-222.72 161.28-65.056 58.304-116.96 117.952-154.4 177.344-47.744 75.712-71.872 151.264-71.872 224.544 0 139.52 114.24 252.992 254.656 252.992 47.52 0 98.016-17.696 142.176-49.824 25.792-18.784 47.776-41.44 63.968-65.472 16.192 24.032 38.176 46.688 63.968 65.472 44.128 32.128 94.624 49.824 142.176 49.824 140.416 0 254.656-113.472 254.656-252.992 0-73.28-24.192-148.864-71.872-224.544-37.408-59.36-89.344-119.040-154.336-177.344-109.92-98.592-218.176-158.784-222.72-161.28-3.68-2.016-7.712-3.040-11.776-3.040h-0.064zM305.856 822.208c-113.632 0-206.144-91.904-206.144-204.8 0-146.496 113.984-279.584 209.6-365.504 85.376-76.704 171.904-130.496 202.688-148.768 30.816 18.272 117.344 72.032 202.688 148.768 95.616 85.856 209.6 219.008 209.6 365.504 0 112.896-92.512 204.8-206.144 204.8-82.592 0-162.816-67.52-183.168-128.096-3.296-9.824-12.576-16.48-22.976-16.48s-19.68 6.656-22.976 16.48c-20.32 60.576-100.544 128.096-183.168 128.096v0z" />
<glyph unicode="&#xe933;" glyph-name="home-door" d="M765.408 51.2h-292.96c-12.704 0-23.040 9.632-23.040 21.472v243.072h-92.16v-243.072c0-11.872-10.336-21.472-23.040-21.472h-75.648c-38.112 0-69.12 28.928-69.12 64.448v343.776c0 11.872 10.336 21.472 23.040 21.472s23.040-9.632 23.040-21.472v-343.776c0-11.872 10.336-21.472 23.040-21.472h52.608v243.072c0 11.872 10.336 21.472 23.040 21.472h138.24c12.704 0 23.040-9.632 23.040-21.472v-243.072h269.92c12.704 0 23.040 9.632 23.040 21.472v343.776c0 11.872 10.336 21.472 23.040 21.472s23.040-9.632 23.040-21.472v-343.776c0-35.552-31.008-64.448-69.12-64.448zM58.784 400.544c-9.44 7.936-10.176 21.536-1.6 30.336l406.816 419.328c12.64 13.024 29.664 20.192 48 20.192 18.304 0 35.328-7.168 48-20.192l136.608-140.832-0.32 50.72c-0.032 5.728 2.4 11.232 6.688 15.264s10.176 6.304 16.352 6.304h92.16c12.704 0 23.040-9.632 23.040-21.472v-193.024l132.288-136.352c8.512-8.8 7.776-22.4-1.6-30.336s-24-7.264-32.544 1.504l-138.24 142.496c-3.84 3.968-5.952 9.12-5.952 14.4v179.808h-45.952l0.512-85.344c0.032-8.896-5.792-16.928-14.688-20.16s-19.040-0.992-25.44 5.632l-177.088 182.496c-3.776 3.904-8.704 6.048-13.824 6.048s-10.048-2.144-13.824-6.048l-406.816-419.328c-4.576-4.672-10.816-7.104-17.088-7.104-5.632 0.128-11.136 1.984-15.52 5.664zM601.6 243.2h76.8v76.8h-76.8v-76.8zM614.4 204.8c-28.288 0-51.2 22.912-51.2 51.2v51.2c0 28.288 22.912 51.2 51.2 51.2h51.2c28.288 0 51.2-22.912 51.2-51.2v-51.2c0-28.288-22.912-51.2-51.2-51.2h-51.2z" />
<glyph unicode="&#xe934;" glyph-name="home-finance-arrow" d="M488.928 622.88c0 14.176 11.52 25.664 25.696 25.664 109.12 0 197.856-88.576 197.856-197.504v-171.872c0-108.896-88.768-197.504-197.856-197.504-109.056 0-197.76 88.608-197.76 197.504v171.872c0 46.752 16.768 91.648 46.816 127.2h-9.472c-14.176 0-25.696 11.488-25.696 25.664s11.52 25.664 25.696 25.664h77.824c14.176 0 25.696-11.488 25.696-25.664v-72.352c0-14.208-11.52-25.664-25.696-25.664s-25.696 11.456-25.696 25.664v19.040c-0.736-1.12-1.088-2.368-1.952-3.392-23.296-26.624-36.128-60.768-36.128-96.16v-171.872c0-80.576 65.696-146.208 146.368-146.208 80.8 0 146.464 65.632 146.464 146.208v171.872c0 80.608-65.696 146.208-146.464 146.208-14.176 0-25.696 11.488-25.696 25.664zM514.656 526.88c14.176 0 25.696-11.488 25.696-25.664v-22.624h57.664c14.176 0 25.696-11.488 25.696-25.664 0-14.208-11.52-25.664-25.696-25.664h-141.024v-36.448h141.024c14.176 0 25.696-11.488 25.696-25.664v-87.712c0-14.208-11.52-25.664-25.696-25.664h-57.664v-22.688c0-14.176-11.52-25.664-25.696-25.664s-25.696 11.488-25.696 25.664v22.688h-57.664c-14.176 0-25.696 11.456-25.696 25.664 0 14.176 11.52 25.664 25.696 25.664h141.024v36.384h-141.024c-14.176 0-25.696 11.456-25.696 25.664v87.744c0 14.176 11.52 25.664 25.696 25.664h57.664v22.624c0 14.176 11.52 25.664 25.696 25.664zM823.008 484.512c-14.176 0-25.696-11.488-25.696-25.664v-407.552h-565.344v407.552c0 14.176-11.52 25.664-25.696 25.664h-67.392l116 115.808c4.832 4.832 7.552 11.328 7.552 18.112v195.424h57.984v-86.208c0-10.368 6.272-19.712 15.84-23.712 9.568-3.936 20.672-1.792 28 5.6l150.368 150.144 375.808-375.168h-67.424zM970.624 477.024l-437.792 437.056c-10.080 10.016-26.304 10.016-36.384 0l-124.64-124.48v49.92c0 14.176-11.52 25.664-25.696 25.664h-109.376c-14.24 0-25.696-11.488-25.696-25.664v-210.464l-152.32-152.064c-7.36-7.328-9.568-18.432-5.536-27.968 3.968-9.6 13.312-15.872 23.68-15.872h103.712v-407.552c0-14.208 11.52-25.664 25.696-25.664h616.736c14.176 0 25.696 11.456 25.696 25.664v407.552h103.776c10.368 0 19.744 6.272 23.68 15.872 4 9.536 1.792 20.64-5.536 27.968v0z" />
<glyph unicode="&#xe935;" glyph-name="home-finance" d="M540.352 501.216c0 14.176-11.52 25.664-25.696 25.664s-25.696-11.488-25.696-25.664v-22.624h-57.664c-14.176 0-25.696-11.488-25.696-25.664v-87.744c0-14.208 11.52-25.664 25.696-25.664h141.024v-36.384h-141.024c-14.176 0-25.696-11.488-25.696-25.664 0-14.208 11.52-25.664 25.696-25.664h57.664v-22.688c0-14.176 11.52-25.664 25.696-25.664s25.696 11.488 25.696 25.664v22.688h57.664c14.176 0 25.696 11.456 25.696 25.664v87.712c0 14.176-11.52 25.664-25.696 25.664h-141.024v36.448h141.024c14.176 0 25.696 11.456 25.696 25.664 0 14.176-11.52 25.664-25.696 25.664h-57.664v22.624zM484.64 591.168c0-16.512 13.472-29.984 30.016-29.984 16.608 0 30.080 13.44 30.080 29.984 0 16.576-13.472 29.984-30.080 29.984-16.544 0-30.016-13.408-30.016-29.984zM661.088 523.904c0 80.576-65.696 146.208-146.464 146.208-80.704 0-146.368-65.632-146.368-146.208v-367.584h292.832v367.584zM316.864 523.904c0 108.896 88.704 197.504 197.76 197.504 109.12 0 197.856-88.608 197.856-197.504v-393.248c0-14.176-11.52-25.664-25.696-25.664h-344.224c-14.24 0-25.696 11.488-25.696 25.664v393.248zM823.008 484.512h67.424l-375.808 375.168-150.368-150.144c-7.296-7.392-18.4-9.536-28-5.6-9.568 4-15.84 13.344-15.84 23.712v86.208h-57.984v-195.424c0-6.784-2.72-13.28-7.552-18.112l-116-115.808h67.392c14.176 0 25.696-11.488 25.696-25.664v-407.552h565.344v407.552c0 14.176 11.52 25.664 25.696 25.664zM970.624 477.024c7.36-7.328 9.568-18.432 5.536-27.968-3.968-9.6-13.312-15.872-23.68-15.872h-103.776v-407.552c0-14.208-11.52-25.664-25.696-25.664h-616.736c-14.176 0-25.696 11.456-25.696 25.664v407.552h-103.712c-10.368 0-19.744 6.272-23.68 15.872-4 9.536-1.792 20.64 5.536 27.968l152.32 152.064v210.464c0 14.176 11.456 25.664 25.696 25.664h109.376c14.176 0 25.696-11.488 25.696-25.664v-49.92l124.64 124.48c10.080 10.016 26.304 10.016 36.384 0l437.792-437.056z" />
<glyph unicode="&#xe936;" glyph-name="house" d="M765.408 51.2h-184.32c-12.704 0-23.040 9.632-23.040 21.472v150.4h-92.16v-150.4c0-11.872-10.336-21.472-23.040-21.472h-184.32c-38.112 0-69.12 28.928-69.12 64.448v343.776c0 11.872 10.336 21.472 23.040 21.472s23.040-9.632 23.040-21.472v-343.776c0-11.872 10.336-21.472 23.040-21.472h161.28v150.4c0 11.872 10.336 21.472 23.040 21.472h138.24c12.704 0 23.040-9.632 23.040-21.472v-150.4h161.28c12.704 0 23.040 9.632 23.040 21.472v343.776c0 11.872 10.336 21.472 23.040 21.472s23.040-9.632 23.040-21.472v-343.776c0-35.552-31.008-64.448-69.12-64.448zM74.24 394.976c-5.536 0-11.072 1.856-15.424 5.536-9.44 7.936-10.176 21.536-1.6 30.336l406.816 419.328c12.64 13.024 29.664 20.192 48 20.192 18.304 0 35.328-7.168 48-20.192l136.608-140.832-0.32 50.72c-0.032 5.728 2.4 11.232 6.688 15.264s10.176 6.304 16.352 6.304h92.16c12.704 0 23.040-9.632 23.040-21.472v-193.024l132.288-136.352c8.512-8.8 7.776-22.4-1.6-30.336s-24-7.264-32.544 1.504l-138.24 142.496c-3.84 3.968-5.952 9.12-5.952 14.4v179.808h-45.952l0.512-85.344c0.032-8.896-5.792-16.928-14.688-20.16s-19.040-0.992-25.44 5.632l-177.088 182.496c-3.776 3.904-8.704 6.048-13.824 6.048s-10.048-2.144-13.824-6.048l-406.816-419.328c-4.576-4.672-10.816-7.104-17.088-7.104l-0.096 0.128z" />
<glyph unicode="&#xe937;" glyph-name="crosshairs" d="M186.528 533.568c-2.272 0-4.608 0.352-6.944 1.024-12.864 3.84-20.128 17.312-16.352 30.176 17.12 57.568 48.8 110.592 91.488 153.312s95.712 74.368 153.312 91.488c12.864 3.84 26.336-3.488 30.176-16.352s-3.488-26.336-16.352-30.176c-102.336-30.464-181.664-109.76-212.128-212.16-3.168-10.528-12.8-17.376-23.232-17.376v0.064zM512 921.6c13.376 0 24.256-10.88 24.256-24.256v-194.016c0-13.376-10.88-24.256-24.256-24.256s-24.256 10.88-24.256 24.256v194.016c0 13.376 10.88 24.256 24.256 24.256zM512 242.528c13.376 0 24.256-10.88 24.256-24.256v-194.016c0-13.376-10.88-24.256-24.256-24.256s-24.256 10.88-24.256 24.256v194.016c0 13.376 10.88 24.256 24.256 24.256zM293.728 460.8c0-13.376-10.88-24.256-24.256-24.256h-194.016c-13.376 0-24.256 10.88-24.256 24.256s10.88 24.256 24.256 24.256h194.016c13.376 0 24.256-10.88 24.256-24.256zM948.544 485.056c13.376 0 24.256-10.88 24.256-24.256s-10.88-24.256-24.256-24.256h-194.016c-13.376 0-24.256 10.88-24.256 24.256s10.88 24.256 24.256 24.256h194.016zM837.472 533.568c-10.464 0-20.096 6.784-23.232 17.312-30.464 102.4-109.76 181.696-212.16 212.16-12.864 3.84-20.128 17.312-16.352 30.176s17.312 20.128 30.176 16.352c57.568-17.12 110.592-48.8 153.312-91.488s74.368-95.744 91.488-153.312c3.84-12.864-3.488-26.336-16.352-30.176-2.336-0.672-4.672-1.024-6.944-1.024h0.064zM609.024 111.072c-10.464 0-20.096 6.784-23.232 17.312-3.84 12.864 3.488 26.336 16.352 30.176 102.336 30.464 181.664 109.76 212.16 212.16 3.84 12.864 17.312 20.128 30.176 16.352s20.128-17.312 16.352-30.176c-17.12-57.568-48.8-110.592-91.488-153.312s-95.712-74.368-153.312-91.488c-2.336-0.672-4.64-1.024-6.944-1.024h-0.064zM414.976 111.072c-2.272 0-4.608 0.352-6.944 1.024-57.568 17.12-110.592 48.736-153.312 91.488s-74.368 95.712-91.488 153.312c-3.84 12.864 3.488 26.336 16.352 30.176s26.336-3.488 30.176-16.352c30.464-102.336 109.76-181.664 212.16-212.128 12.864-3.84 20.128-17.312 16.352-30.176-3.168-10.528-12.8-17.376-23.232-17.376h-0.064z" />
<glyph unicode="&#xe938;" glyph-name="inbox" d="M921.216 179.168l0.416 255.552-0.416 0.448h-230.912c-22.208-77.472-93.76-134.304-178.272-134.304-84.576 0-156.064 56.832-178.336 134.304h-230.848l-0.416-255.584 818.784-0.416zM966.976 457.472c3.424-6.976 5.824-14.496 5.824-22.784v-255.136c0-28.512-23.104-51.616-51.616-51.616h-818.368c-28.512 0-51.616 23.104-51.616 51.616v255.136c0 7.68 1.856 14.752 4.8 21.248l-0.16-0.064 153.248 310.432c16.8 33.632 59.392 59.968 96.96 59.968h76.8c14.144 0 25.6-11.52 25.6-25.6 0-14.176-11.456-25.6-25.6-25.6h-76.8c-18.528 0-42.944-15.104-51.2-31.648l-128.576-257.088h251.392c0-74.176 60.16-134.304 134.304-134.304s134.304 60.096 134.304 134.304h250.944l-128.576 257.088c-8.288 16.544-32.608 31.648-51.2 31.648h-76.8c-14.144 0-25.6 11.424-25.6 25.6 0 14.080 11.456 25.6 25.6 25.6h76.8c37.632 0 80.192-26.304 96.96-59.968l152.512-308.832zM632.416 683.648h0.096c9.984-9.92 9.984-26.208 0-36.192l-102.4-102.4c-5.024-4.96-11.584-7.488-18.112-7.488-6.496 0-13.056 2.464-18.112 7.488l-102.4 102.4c-9.92 9.984-9.92 26.272 0 36.192 9.984 9.984 26.272 9.984 36.192 0l58.688-58.688v219.808c0 14.144 11.456 25.6 25.6 25.6 14.176 0 25.6-11.456 25.6-25.6v-219.808l58.688 58.688c9.984 9.984 26.272 9.984 36.192 0z" />
<glyph unicode="&#xe939;" glyph-name="instagram" d="M767.2 684.032c-17.632 0-31.968 14.336-31.968 31.968s14.336 31.968 31.968 31.968c17.632 0 32.032-14.336 32.032-31.968s-14.4-31.968-32.032-31.968v0zM767.2 801.696c-47.232 0-85.696-38.4-85.696-85.696 0-47.232 38.464-85.696 85.696-85.696 47.264 0 85.76 38.464 85.76 85.696 0 47.264-38.464 85.696-85.76 85.696v0zM512 291.232c-93.472 0-169.504 76.032-169.504 169.568 0 93.472 76.032 169.504 169.504 169.504s169.504-76.032 169.504-169.504c0-93.536-76.032-169.568-169.504-169.568v0zM512 684.032c-123.072 0-223.232-100.16-223.232-223.232s100.16-223.296 223.232-223.296c123.072 0 223.232 100.192 223.232 223.296s-100.16 223.232-223.232 223.232v0zM919.072 204.096c0-82.944-67.488-150.368-150.432-150.368h-513.28c-82.944 0-150.432 67.424-150.432 150.368v513.344c0 82.944 67.488 150.432 150.432 150.432h513.28c82.944 0 150.432-67.488 150.432-150.432v-513.344zM768.64 921.6h-513.28c-112.608 0-204.16-91.552-204.16-204.16v-513.344c0-112.544 91.552-204.096 204.16-204.096h513.28c112.608 0 204.16 91.552 204.16 204.096v513.344c0 112.608-91.552 204.16-204.16 204.16v0z" />
<glyph unicode="&#xe93a;" glyph-name="laptop" d="M949.76 266.24h-875.52c-12.704 0-23.040-10.336-23.040-23.040v-46.080c0-38.112 31.008-69.12 69.12-69.12h783.36c38.112 0 69.12 31.008 69.12 69.12v46.080c0 12.704-10.336 23.040-23.040 23.040zM903.68 174.080h-783.36c-12.704 0-23.040 10.336-23.040 23.040v23.040h829.44v-23.040c0-12.704-10.336-23.040-23.040-23.040zM212.48 312.32h599.040c38.112 0 69.12 31.008 69.12 69.12v368.64c0 38.112-31.008 69.12-69.12 69.12h-599.040c-38.112 0-69.12-31.008-69.12-69.12v-368.64c0-38.112 31.008-69.12 69.12-69.12zM189.44 750.080c0 12.704 10.336 23.040 23.040 23.040h599.040c12.704 0 23.040-10.336 23.040-23.040v-368.64c0-12.704-10.336-23.040-23.040-23.040h-599.040c-12.704 0-23.040 10.336-23.040 23.040v368.64z" />
<glyph unicode="&#xe93b;" glyph-name="link" d="M716.8 409.536c-9.472 0-19.040 0.576-28.416 1.6-14.016 1.6-24.16 14.24-22.624 28.256 1.536 14.080 14.24 24.256 28.256 22.624 7.52-0.768 15.168-1.216 22.784-1.216 112.96 0 204.8 91.84 204.8 204.8s-91.84 204.8-204.8 204.8c-112.96 0-204.8-91.84-204.8-204.8 0-7.584 0.416-15.264 1.216-22.72 1.536-14.080-8.608-26.784-22.624-28.256-14.016-1.536-26.72 8.608-28.256 22.592-1.024 9.408-1.536 18.944-1.536 28.416 0 141.216 114.848 256 256 256s256-114.784 256-256c0-141.152-114.848-256-256-256v-0.064zM332.8 255.936c-6.56 0-13.12 2.56-18.112 7.488-9.984 10.048-9.984 26.208 0 36.256l358.4 358.4c9.984 9.984 26.208 9.984 36.192 0 9.984-10.048 9.984-26.208 0-36.256l-358.4-358.4c-5.024-4.96-11.584-7.488-18.112-7.488h0.064zM307.2-0.064c-141.152 0-256 114.848-256 256 0 141.216 114.848 256 256 256 9.472 0 19.040-0.512 28.416-1.536 14.016-1.6 24.16-14.24 22.624-28.32-1.536-14.016-14.176-24.16-28.256-22.592-7.52 0.768-15.168 1.184-22.784 1.184-112.96 0-204.8-91.84-204.8-204.8s91.84-204.8 204.8-204.8c112.96 0 204.8 91.84 204.8 204.8 0 7.584-0.416 15.296-1.216 22.784-1.536 14.080 8.608 26.784 22.624 28.256 14.016 1.536 26.72-8.608 28.256-22.592 1.024-9.408 1.6-18.944 1.6-28.48 0-141.152-114.848-256-256-256l-0.064 0.064z" />
<glyph unicode="&#xe93c;" glyph-name="linkedin" d="M292.352 668.128c-17.568 0-31.808 14.304-31.808 31.872s14.24 31.872 31.808 31.872c17.568 0 31.872-14.304 31.872-31.872s-14.304-31.872-31.872-31.872v0zM292.352 785.568c-47.168 0-85.536-38.4-85.536-85.568s38.368-85.568 85.536-85.568c47.168 0 85.568 38.4 85.568 85.568s-38.4 85.568-85.568 85.568v0zM794.752 409.312v-214.88c0-14.88-12.032-26.848-26.848-26.848-14.88 0-26.848 11.968-26.848 26.848v214.88c0 64.352-52.384 116.672-116.736 116.672-64.416 0-116.736-52.32-116.736-116.672v-214.88c0-14.88-12.032-26.848-26.848-26.848-14.88 0-26.848 11.968-26.848 26.848v358.432c0 14.88 11.968 26.848 26.848 26.848 14.816 0 26.848-11.968 26.848-26.848v-20.032c30.56 28.96 71.456 46.912 116.736 46.912 93.952 0 170.464-76.384 170.464-170.4v0zM319.232 552.864v-358.432c0-14.88-12.032-26.848-26.848-26.848s-26.848 11.968-26.848 26.848v358.432c0 14.88 12.032 26.848 26.848 26.848s26.848-11.968 26.848-26.848v0zM919.072 204.128c0-82.944-67.488-150.464-150.464-150.464h-513.248c-82.944 0-150.432 67.52-150.432 150.464v513.248c0 82.944 67.488 150.464 150.432 150.464h513.248c83.008 0 150.464-67.52 150.464-150.464v-513.248zM768.608 921.6h-513.248c-112.608 0-204.128-91.584-204.128-204.192v-513.248c0-112.544 91.552-204.192 204.128-204.192h513.248c112.608 0 204.192 91.648 204.192 204.192v513.248c0 112.608-91.584 204.192-204.192 204.192v0z" />
<glyph unicode="&#xe93d;" glyph-name="list" d="M128 102.432c-42.336 0-76.8 34.464-76.8 76.8 0 42.304 34.464 76.8 76.8 76.8s76.8-34.496 76.8-76.8c0-42.336-34.464-76.8-76.8-76.8zM128 204.832c-14.144 0-25.6-11.52-25.6-25.6 0-14.144 11.456-25.6 25.6-25.6s25.6 11.456 25.6 25.6c0 14.080-11.456 25.6-25.6 25.6zM947.2 153.632h-665.6c-14.144 0-25.6 11.456-25.6 25.6 0 14.080 11.456 25.6 25.6 25.6h665.6c14.144 0 25.6-11.52 25.6-25.6 0-14.144-11.456-25.6-25.6-25.6zM947.2 409.632h-665.6c-14.144 0-25.6 11.456-25.6 25.6 0 14.080 11.456 25.6 25.6 25.6h665.6c14.144 0 25.6-11.52 25.6-25.6 0-14.144-11.456-25.6-25.6-25.6zM281.6 665.632c-14.144 0-25.6 11.456-25.6 25.6 0 14.080 11.456 25.6 25.6 25.6h665.6c14.144 0 25.6-11.52 25.6-25.6 0-14.144-11.456-25.6-25.6-25.6h-665.6zM128 614.432c-42.336 0-76.8 34.464-76.8 76.8 0 42.304 34.464 76.8 76.8 76.8s76.8-34.496 76.8-76.8c0-42.336-34.464-76.8-76.8-76.8zM128 716.832c-14.144 0-25.6-11.52-25.6-25.6 0-14.144 11.456-25.6 25.6-25.6s25.6 11.456 25.6 25.6c0 14.080-11.456 25.6-25.6 25.6zM128 358.432c-42.336 0-76.8 34.464-76.8 76.8 0 42.304 34.464 76.8 76.8 76.8s76.8-34.496 76.8-76.8c0-42.336-34.464-76.8-76.8-76.8zM128 460.832c-14.144 0-25.6-11.52-25.6-25.6 0-14.144 11.456-25.6 25.6-25.6s25.6 11.456 25.6 25.6c0 14.080-11.456 25.6-25.6 25.6z" />
<glyph unicode="&#xe93e;" glyph-name="loading" d="M512 0c-123.072 0-238.784 47.936-325.824 134.976s-134.976 202.752-134.976 325.824c0 123.072 47.936 238.784 134.976 325.824s202.752 134.976 325.824 134.976c123.072 0 238.784-47.936 325.824-134.976s134.976-202.752 134.976-325.824c0-123.072-47.936-238.784-134.976-325.824s-202.752-134.976-325.824-134.976zM512 870.4c-225.856 0-409.6-183.744-409.6-409.6s183.744-409.6 409.6-409.6c225.856 0 409.6 183.744 409.6 409.6s-183.744 409.6-409.6 409.6zM512 204.8c141.152 0 256 114.848 256 256s-114.848 256-256 256c-141.152 0-256-114.848-256-256s114.848-256 256-256zM512 665.6c112.96 0 204.8-91.84 204.8-204.8s-91.84-204.8-204.8-204.8c-112.96 0-204.8 91.84-204.8 204.8s91.84 204.8 204.8 204.8zM180.16 460.8c-0.672 0-1.344 0.064-1.952 0.064-14.080 1.088-24.672 13.376-23.616 27.488 6.464 85.152 43.36 165.312 103.936 225.888s140.736 97.44 225.888 103.936c14.144 1.088 26.432-9.472 27.488-23.616s-9.472-26.432-23.616-27.488c-149.76-11.424-271.264-132.928-282.624-282.624-1.024-13.408-12.224-23.648-25.504-23.648h-0.064z" />
<glyph unicode="&#xe93f;" glyph-name="lock" d="M819.2 97.088v523.072c0 25.184-20.48 45.664-45.728 45.664h-523.008c-25.184 0-45.664-20.48-45.664-45.664v-523.072c0-25.152 20.48-45.664 45.664-45.664h523.008c25.248 0 45.728 20.544 45.728 45.664zM403.36 761.728v-44.704h217.248v44.704c0 59.904-48.736 108.704-108.608 108.704-59.904 0-108.64-48.8-108.64-108.704zM773.504 717.024c53.568 0 96.928-43.36 96.928-96.864v-523.072c0-53.504-43.36-96.864-96.928-96.864h-523.008c-53.504 0-96.864 43.36-96.864 96.864v523.072c0 53.504 43.36 96.864 96.864 96.864h101.696v44.704c0 88.16 71.744 159.904 159.84 159.904s159.808-71.744 159.808-159.904v-44.704h101.696zM481.952 215.264v84.48c0 9.568-5.312 18.336-13.76 22.72-31.84 16.576-51.616 48.896-51.616 84.16 0 52.64 42.816 95.424 95.424 95.424 52.576 0 95.392-42.816 95.392-95.424 0-35.264-19.776-67.584-51.616-84.16-8.448-4.416-13.76-13.152-13.76-22.72v-84.48h-60.064zM567.616 164.064c14.176 0 25.6 11.456 25.6 25.6v95.552c40.704 27.072 65.376 72.288 65.376 121.44 0 80.832-65.728 146.624-146.592 146.624s-146.624-65.792-146.624-146.624c0-49.152 24.736-94.304 65.376-121.44v-95.552c0-14.144 11.456-25.6 25.6-25.6h111.264z" />
<glyph unicode="&#xe940;" glyph-name="mail" d="M900.032 768h-776.096c-40.128 0-72.768-32.64-72.768-72.768v-436.544c0-40.128 32.64-72.768 72.768-72.768h776.096c40.128 0 72.768 32.64 72.768 72.768v436.544c0 40.128-32.64 72.768-72.768 72.768zM900.032 719.488c1.44 0 2.816-0.16 4.224-0.384l-365.344-243.552c-14.080-9.376-39.712-9.376-53.792 0l-365.344 243.552c1.344 0.256 2.752 0.384 4.224 0.384h776.032zM900.032 234.432h-776.096c-13.376 0-24.256 10.88-24.256 24.256v415.488l358.496-238.976c15.072-10.048 34.432-15.072 53.792-15.072s38.72 5.056 53.792 15.072l358.496 238.976v-415.488c0-13.376-10.88-24.256-24.256-24.256z" />
<glyph unicode="&#xe941;" glyph-name="mailbox" d="M51.2 256.64v511.488h51.2v-511.488h-51.2zM449.472 51.84h125.12v204.8h-125.12v-204.8zM746.816 716.928c124.832 0 225.984-101.184 225.984-225.984v-209.344c0-13.728-11.2-24.928-24.928-24.928h-322.048v-256h-227.584v256h-219.648c-13.76 0-24.992 11.2-24.992 24.928v410.432c0 13.728 11.2 24.928 24.992 24.928h162.56c14.144 0 25.6-11.424 25.6-25.6 0-14.144-11.456-25.6-25.6-25.6h-136.352v-357.888h716.8v183.104c0 96.416-78.4 174.784-174.784 174.784h-241.984c-14.144 0-25.6 11.456-25.6 25.6 0 14.176 11.456 25.6 25.6 25.6h241.984zM449.472 819.328h125.12v51.040h-125.12v-51.040zM398.24 921.6h227.584v-153.44h-176.384v-240.288c0-14.144-11.456-25.6-25.6-25.6s-25.6 11.456-25.6 25.6v393.728z" />
<glyph unicode="&#xe942;" glyph-name="map" d="M903.68 921.6h-783.36c-38.112 0-69.12-31.008-69.12-69.12v-783.36c0-38.112 31.008-69.12 69.12-69.12h783.36c38.112 0 69.12 31.008 69.12 69.12v783.36c0 38.112-31.008 69.12-69.12 69.12zM350.72 92.16c-12.704 0-23.040-10.336-23.040-23.040v-23.040h-92.16v829.44h92.16v-23.040c0-12.704 10.336-23.040 23.040-23.040s23.040 10.336 23.040 23.040v23.040h92.16v-829.44h-92.16v23.040c0 12.704-10.336 23.040-23.040 23.040zM189.44 184.32h-92.16v46.080h92.16v-46.080zM512 230.4h414.72v-46.080h-414.72v46.080zM926.72 852.48v-576h-414.72v599.040h391.68c12.704 0 23.040-10.336 23.040-23.040zM120.32 875.52h69.12v-599.040h-92.16v576c0 12.704 10.336 23.040 23.040 23.040zM97.28 69.12v69.12h92.16v-92.16h-69.12c-12.704 0-23.040 10.336-23.040 23.040zM903.68 46.080h-391.68v92.16h414.72v-69.12c0-12.704-10.336-23.040-23.040-23.040zM373.76 207.36v-46.080c0-12.704-10.336-23.040-23.040-23.040s-23.040 10.336-23.040 23.040v46.080c0 12.704 10.336 23.040 23.040 23.040s23.040-10.336 23.040-23.040zM350.72 691.2c-12.704 0-23.040 10.336-23.040 23.040v46.080c0 12.704 10.336 23.040 23.040 23.040s23.040-10.336 23.040-23.040v-46.080c0-12.704-10.336-23.040-23.040-23.040zM350.72 552.96c-12.704 0-23.040 10.336-23.040 23.040v46.080c0 12.704 10.336 23.040 23.040 23.040s23.040-10.336 23.040-23.040v-46.080c0-12.704-10.336-23.040-23.040-23.040zM350.72 414.72c-12.704 0-23.040 10.336-23.040 23.040v46.080c0 12.704 10.336 23.040 23.040 23.040s23.040-10.336 23.040-23.040v-46.080c0-12.704-10.336-23.040-23.040-23.040zM350.72 276.48c-12.704 0-23.040 10.336-23.040 23.040v46.080c0 12.704 10.336 23.040 23.040 23.040s23.040-10.336 23.040-23.040v-46.080c0-12.704-10.336-23.040-23.040-23.040zM719.36 322.56c-6.72 0-13.12 2.944-17.504 8.064-1.472 1.696-36.416 42.656-71.616 104.384-47.872 83.776-72.16 162.24-72.16 233.216 0 88.928 72.352 161.28 161.28 161.28s161.28-72.352 161.28-161.28c0-70.976-24.288-149.376-72.16-233.216-35.264-61.664-70.176-102.656-71.616-104.384-4.384-5.12-10.784-8.064-17.504-8.064zM719.36 783.36c-63.488 0-115.2-51.712-115.2-115.2 0-117.184 79.104-236.8 115.2-285.248 36.032 48.48 115.2 168.224 115.2 285.248 0 63.488-51.712 115.2-115.2 115.2zM719.36 599.040c-38.112 0-69.12 31.008-69.12 69.12s31.008 69.12 69.12 69.12c38.112 0 69.12-31.008 69.12-69.12s-31.008-69.12-69.12-69.12zM719.36 691.2c-12.704 0-23.040-10.336-23.040-23.040s10.336-23.040 23.040-23.040c12.704 0 23.040 10.336 23.040 23.040s-10.336 23.040-23.040 23.040z" />
<glyph unicode="&#xe943;" glyph-name="speech-bubble" d="M830.582 921.175c78.438 0 142.234-63.795 142.234-142.234v-483.258c0-67.994-47.514-124.774-111.923-138.65v-118.17c0-10.394-6.246-19.712-15.821-23.654-3.123-1.331-6.502-1.946-9.779-1.946-6.656 0-13.21 2.56-18.125 7.475l-132.71 132.762h-491.439c-78.438 0-142.234 63.795-142.234 142.182v483.258c0 78.438 63.795 142.234 142.234 142.234h637.563zM830.582 869.975h-637.563c-50.176 0-91.034-40.858-91.034-91.034v-483.258c0-50.176 40.858-90.982 91.034-90.982h502.037c6.81 0 13.312-2.714 18.125-7.526l96.512-96.512v78.899c0 13.722 10.854 25.037 24.525 25.6 48.998 1.946 87.398 41.728 87.398 90.522v483.258c0 50.176-40.858 91.034-91.034 91.034zM488.96 409.6c12.718 0 23.040-10.322 23.040-23.040s-10.322-23.040-23.040-23.040h-230.4c-12.718 0-23.040 10.322-23.040 23.040s10.322 23.040 23.040 23.040h230.4zM765.44 512c12.718 0 23.040-10.322 23.040-23.040s-10.322-23.040-23.040-23.040h-506.88c-12.718 0-23.040 10.322-23.040 23.040s10.322 23.040 23.040 23.040h506.88zM677.12 614.4c10.598 0 19.2-10.322 19.2-23.040s-8.602-23.040-19.2-23.040h-422.4c-10.598 0-19.2 10.322-19.2 23.040s8.602 23.040 19.2 23.040h422.4zM765.44 716.8c12.718 0 23.040-10.322 23.040-23.040s-10.322-23.040-23.040-23.040h-506.88c-12.718 0-23.040 10.322-23.040 23.040s10.322 23.040 23.040 23.040h506.88z" />
<glyph unicode="&#xe944;" glyph-name="menu-dots-horizontal" d="M512 409.6c28.288 0 51.2 22.912 51.2 51.2s-22.912 51.2-51.2 51.2c-28.288 0-51.2-22.912-51.2-51.2s22.912-51.2 51.2-51.2zM512 358.4c-56.544 0-102.4 45.856-102.4 102.4s45.856 102.4 102.4 102.4c56.544 0 102.4-45.856 102.4-102.4s-45.856-102.4-102.4-102.4zM153.6 409.6c28.288 0 51.2 22.912 51.2 51.2s-22.912 51.2-51.2 51.2c-28.288 0-51.2-22.912-51.2-51.2s22.912-51.2 51.2-51.2zM153.6 358.4c-56.544 0-102.4 45.856-102.4 102.4s45.856 102.4 102.4 102.4c56.544 0 102.4-45.856 102.4-102.4s-45.856-102.4-102.4-102.4zM870.4 409.6c28.288 0 51.2 22.912 51.2 51.2s-22.912 51.2-51.2 51.2c-28.288 0-51.2-22.912-51.2-51.2s22.912-51.2 51.2-51.2zM870.4 358.4c-56.544 0-102.4 45.856-102.4 102.4s45.856 102.4 102.4 102.4c56.544 0 102.4-45.856 102.4-102.4s-45.856-102.4-102.4-102.4z" />
<glyph unicode="&#xe945;" glyph-name="menu-dots-vertical" d="M460.8 460.8c0-28.288 22.912-51.2 51.2-51.2s51.2 22.912 51.2 51.2c0 28.288-22.912 51.2-51.2 51.2s-51.2-22.912-51.2-51.2zM409.6 460.8c0 56.544 45.856 102.4 102.4 102.4s102.4-45.856 102.4-102.4c0-56.544-45.856-102.4-102.4-102.4s-102.4 45.856-102.4 102.4zM460.8 819.2c0-28.288 22.912-51.2 51.2-51.2s51.2 22.912 51.2 51.2c0 28.288-22.912 51.2-51.2 51.2s-51.2-22.912-51.2-51.2zM409.6 819.2c0 56.544 45.856 102.4 102.4 102.4s102.4-45.856 102.4-102.4c0-56.544-45.856-102.4-102.4-102.4s-102.4 45.856-102.4 102.4zM460.8 102.4c0-28.288 22.912-51.2 51.2-51.2s51.2 22.912 51.2 51.2c0 28.288-22.912 51.2-51.2 51.2s-51.2-22.912-51.2-51.2zM409.6 102.4c0 56.544 45.856 102.4 102.4 102.4s102.4-45.856 102.4-102.4c0-56.544-45.856-102.4-102.4-102.4s-102.4 45.856-102.4 102.4z" />
<glyph unicode="&#xe946;" glyph-name="menu-hamburger" d="M76.8 486.4h870.4c14.144 0 25.6-11.456 25.6-25.6s-11.456-25.6-25.6-25.6h-870.4c-14.144 0-25.6 11.456-25.6 25.6s11.456 25.6 25.6 25.6zM76.8 870.4h870.4c14.144 0 25.6-11.456 25.6-25.6s-11.456-25.6-25.6-25.6h-870.4c-14.144 0-25.6 11.456-25.6 25.6s11.456 25.6 25.6 25.6zM76.8 102.4h870.4c14.144 0 25.6-11.456 25.6-25.6s-11.456-25.6-25.6-25.6h-870.4c-14.144 0-25.6 11.456-25.6 25.6s11.456 25.6 25.6 25.6z" />
<glyph unicode="&#xe947;" glyph-name="mobile-phone2" d="M693.76 184.32c12.704 0 23.040 10.336 23.040 23.040v599.040c0 12.704-10.336 23.040-23.040 23.040h-322.56c-12.704 0-23.040-10.336-23.040-23.040v-599.040c0-12.704 10.336-23.040 23.040-23.040h322.56zM394.24 230.4v552.96h276.48v-552.96h-276.48zM555.52 92.16h-46.080c-12.704 0-23.040 10.336-23.040 23.040s10.336 23.040 23.040 23.040h46.080c12.704 0 23.040-10.336 23.040-23.040s-10.336-23.040-23.040-23.040zM739.84 0h-414.72c-38.112 0-69.12 31.008-69.12 69.12v783.36c0 38.112 31.008 69.12 69.12 69.12h414.72c38.112 0 69.12-31.008 69.12-69.12v-783.36c0-38.112-31.008-69.12-69.12-69.12zM325.12 875.52c-12.704 0-23.040-10.336-23.040-23.040v-783.36c0-12.704 10.336-23.040 23.040-23.040h414.72c12.704 0 23.040 10.336 23.040 23.040v783.36c0 12.704-10.336 23.040-23.040 23.040h-414.72z" />
<glyph unicode="&#xe948;" glyph-name="music" d="M704.896 235.552c-47.168 0-85.504 38.336-85.504 85.504 0 47.104 38.336 85.44 85.504 85.44s85.504-38.336 85.504-85.44c0-47.168-38.336-85.504-85.504-85.504v0zM326.272 553.408l0.608 142.272 465.76 164.16-0.608-142.272-465.76-164.16zM187.872 54.208c-47.168 0-85.504 38.336-85.504 85.504s38.336 85.504 85.504 85.504c47.168 0 85.504-38.336 85.504-85.504s-38.336-85.504-85.504-85.504v0zM844 895.936c0.064 8.352-4 16.192-10.752 20.992-6.752 4.768-15.52 5.952-23.36 3.264l-517.024-182.208c-10.176-3.584-17.056-13.152-17.088-24l-1.952-468.832c-23.552 19.264-53.184 31.296-85.952 31.296-75.36 0-136.704-61.28-136.704-136.704s61.344-136.704 136.704-136.704c75.36 0 136.64 61.248 136.704 136.608l1.536 359.424 465.728 164.192-0.96-236.736c-23.552 19.2-53.184 31.232-85.952 31.232-75.424 0-136.704-61.28-136.704-136.64 0-75.424 61.28-136.704 136.704-136.704 75.36 0 136.64 61.248 136.704 136.608l2.4 574.976z" />
<glyph unicode="&#xe949;" glyph-name="number-1" d="M544.544 0c-15.904 0-28.8 12.896-28.8 28.8v816.48h-128.576c-15.904 0-28.8 12.832-28.8 28.8 0 15.904 12.896 28.8 28.8 28.8h157.376c15.904 0 28.8-12.896 28.8-28.8v-845.28c0-15.904-12.896-28.8-28.8-28.8z" />
<glyph unicode="&#xe94a;" glyph-name="number-2" d="M834.848 58.784h-571.488v184.16c0 103.904 84.224 188.448 187.808 188.448h168.768c134.656 0 244.224 109.952 244.224 245.12s-109.536 245.12-244.224 245.12h-385.856c-16.16 0-29.28-13.184-29.28-29.408v-173.856c0-16.288 13.12-29.408 29.28-29.408 16.224 0 29.28 13.12 29.28 29.408v144.448h356.576c102.4 0 185.632-83.616 185.632-186.304s-83.232-186.304-185.632-186.304h-168.768c-135.84 0-246.368-110.944-246.368-247.232v-213.536c0-16.224 13.12-29.408 29.28-29.408h600.768c16.16 0 29.28 13.184 29.28 29.408s-13.12 29.408-29.28 29.408z" />
<glyph unicode="&#xe94b;" glyph-name="number-3" d="M730.944 451.392c75.456 40.32 127.552 119.392 127.552 211.328 0 132.416-106.912 240.128-238.304 240.128h-376.576c-15.84 0-28.576-12.896-28.576-28.8s12.736-28.8 28.576-28.8h376.576c99.872 0 181.12-81.92 181.12-182.528s-81.248-182.528-181.12-182.528h-262.24c-15.84 0-28.576-12.896-28.576-28.8s12.736-28.8 28.576-28.8h262.24c99.872 0 181.12-81.92 181.12-182.528s-81.248-182.464-181.12-182.464h-376.576c-15.84 0-28.576-12.896-28.576-28.8s12.736-28.8 28.576-28.8h376.576c131.392 0 238.304 107.712 238.304 240.064 0 91.936-52.096 171.008-127.552 211.328z" />
<glyph unicode="&#xe94c;" glyph-name="paper-airplane" d="M965.12 915.744c-6.624 5.952-16.096 7.52-24.288 4.064l-875.52-368.64c-8.832-3.744-14.464-12.544-14.112-22.112s6.624-17.92 15.744-20.96l260.736-86.912v-259.904c0-9.76 6.144-18.432 15.36-21.696 2.528-0.864 5.12-1.344 7.68-1.344 6.816 0 13.408 3.040 17.888 8.512l127.328 156.704 207.232-204.64c4.384-4.32 10.176-6.624 16.16-6.624 1.92 0 3.872 0.224 5.76 0.736 7.84 2.016 14.048 8.032 16.352 15.808l230.4 783.36c2.528 8.512-0.128 17.728-6.784 23.68l0.032-0.032zM794.496 808.192l-448.096-344.672-206.816 68.928 654.88 275.744zM373.792 426.4l433.856 333.728-331.488-408c0 0 0-0.032-0.032-0.032l-102.304-125.952v200.256zM708.128 158.624l-183.040 180.736 370.176 455.584-187.136-636.32z" />
<glyph unicode="&#xe94d;" glyph-name="pencil-paper" d="M931.456 881.472c-25.888 25.888-60.32 40.128-96.896 40.128s-71.040-14.24-96.896-40.128l-449.28-449.28c-2.4-2.4-4.192-5.248-5.344-8.448l-92.16-253.44c-3.040-8.448-0.96-17.824 5.344-24.16 4.384-4.416 10.272-6.784 16.32-6.784 2.624 0 5.312 0.448 7.872 1.376l253.44 92.16c3.168 1.152 6.048 3.008 8.448 5.344l449.28 449.28c25.888 25.888 40.128 60.32 40.128 96.96s-14.24 71.040-40.128 96.96h-0.096zM453.248 274.496l-202.24-73.536 73.536 202.24 371.776 371.776 128.704-128.704-371.776-371.776zM898.944 720.192l-41.344-41.28-128.704 128.704 41.344 41.28c17.184 17.184 40.032 26.624 64.32 26.624s47.136-9.44 64.384-26.624c17.184-17.184 26.624-40.032 26.624-64.32s-9.44-47.136-26.624-64.32v-0.032zM857.6 1.152h-737.28c-38.112 0-69.12 31.008-69.12 69.12v737.28c0 38.112 31.008 69.12 69.12 69.12h460.8c12.704 0 23.040-10.336 23.040-23.040s-10.336-23.040-23.040-23.040h-460.8c-12.704 0-23.040-10.336-23.040-23.040v-737.28c0-12.704 10.336-23.040 23.040-23.040h737.28c12.704 0 23.040 10.336 23.040 23.040v460.8c0 12.704 10.336 23.040 23.040 23.040s23.040-10.336 23.040-23.040v-460.8c0-38.112-31.008-69.12-69.12-69.12z" />
<glyph unicode="&#xe94e;" glyph-name="pencil" d="M932.64 881.408c-25.92 25.92-60.384 40.192-97.088 40.192s-71.136-14.272-97.088-40.192l-588.288-588.288c-2.4-2.4-4.192-5.248-5.344-8.448l-92.288-253.76c-3.040-8.448-0.96-17.856 5.344-24.192 4.384-4.384 10.304-6.72 16.32-6.72 2.624 0 5.312 0.448 7.904 1.376l253.76 92.288c3.2 1.152 6.048 3.008 8.448 5.344l588.288 588.288c25.92 25.92 40.192 60.384 40.192 97.088s-14.272 71.136-40.192 97.088v-0.032zM315.36 135.232l-202.496-73.632 73.632 202.496 510.688 510.688 128.864-128.864-510.688-510.688zM900 719.936l-41.344-41.344-128.864 128.864 41.344 41.344c17.216 17.216 40.096 26.656 64.416 26.656s47.2-9.472 64.416-26.656c17.216-17.216 26.656-40.096 26.656-64.416s-9.472-47.2-26.656-64.416l0.032-0.032z" />
<glyph unicode="&#xe94f;" glyph-name="people-multiple" d="M281.6 404.48c76.224 0 138.24 62.016 138.24 138.24s-62.016 138.24-138.24 138.24c-76.224 0-138.24-62.016-138.24-138.24s62.016-138.24 138.24-138.24zM281.6 634.88c50.816 0 92.16-41.344 92.16-92.16s-41.344-92.16-92.16-92.16c-50.816 0-92.16 41.344-92.16 92.16s41.344 92.16 92.16 92.16zM903.68 128h-506.88c-38.112 0-69.12 31.008-69.12 69.12 0 2.208 0.512 54.848 42.592 106.688 24.192 29.76 57.184 53.376 98.048 70.144 49.344 20.288 110.592 30.496 181.92 30.496s132.512-10.272 181.92-30.496c40.864-16.768 73.856-40.352 98.048-70.144 42.112-51.84 42.592-104.448 42.592-106.688 0-38.112-31.008-69.12-69.12-69.12zM373.76 196.992c0.032-12.672 10.368-22.912 23.040-22.912h506.88c12.672 0 23.008 10.272 23.040 22.912-0.032 1.6-1.472 41.248-34.048 79.904-44.896 53.312-128.704 81.472-242.432 81.472s-197.536-28.192-242.432-81.472c-32.576-38.72-34.016-78.304-34.048-79.904zM650.24 450.56c-101.664 0-184.32 82.656-184.32 184.32s82.656 184.32 184.32 184.32c101.664 0 184.32-82.656 184.32-184.32s-82.656-184.32-184.32-184.32zM650.24 773.12c-76.224 0-138.24-62.016-138.24-138.24s62.016-138.24 138.24-138.24c76.224 0 138.24 62.016 138.24 138.24s-62.016 138.24-138.24 138.24zM258.56 128h-138.24c-38.112 0-69.12 31.008-69.12 69.12 0 1.696 0.384 42.72 30.56 82.944 17.408 23.264 41.184 41.664 70.656 54.752 35.2 15.68 78.72 23.584 129.248 23.584 8.256 0 16.416-0.224 24.288-0.64 12.704-0.704 22.432-11.52 21.792-24.224s-11.52-22.496-24.224-21.792c-7.040 0.384-14.368 0.544-21.792 0.544-179.424 0-184.192-109.632-184.32-115.328 0.032-12.64 10.368-22.912 23.040-22.912h138.24c12.704 0 23.040-10.336 23.040-23.040s-10.336-23.040-23.040-23.040l-0.096 0.032z" />
<glyph unicode="&#xe950;" glyph-name="people-share" d="M711.424 826.176c0 52.736 42.688 95.424 95.392 95.424s95.392-42.688 95.392-95.424c0-52.672-42.688-95.392-95.392-95.392s-95.392 42.688-95.392 95.392zM850.976 826.176c0 24.384-19.808 44.224-44.192 44.224-24.416 0-44.192-19.872-44.192-44.224s19.776-44.192 44.192-44.192c24.384 0 44.192 19.808 44.192 44.192zM686.208 567.040h241.152v47.808c-66.4 59.648-174.752 59.712-241.152 0v-47.808zM660.608 515.84c-14.144 0-25.6 11.456-25.6 25.6v84.384c0 6.752 2.72 13.248 7.488 18.016 43.84 44.096 102.208 68.288 164.256 68.288 62.144 0 120.512-24.224 164.352-68.288 4.768-4.768 7.488-11.264 7.488-18.016v-84.384c0-14.144-11.456-25.6-25.6-25.6h-292.352zM127.552 308.512c0 52.672 42.752 95.392 95.424 95.392 52.64 0 95.392-42.688 95.392-95.392 0-52.736-42.752-95.424-95.392-95.424-52.672 0-95.424 42.688-95.424 95.424zM267.168 308.512c0 24.32-19.808 44.192-44.192 44.192-24.416 0-44.224-19.872-44.224-44.192 0-24.416 19.808-44.224 44.224-44.224 24.384 0 44.192 19.808 44.192 44.224zM102.4 49.344h241.152v47.808c-66.4 59.648-174.752 59.712-241.152 0v-47.808zM76.8-1.856c-14.144 0-25.6 11.456-25.6 25.6v84.32c0 6.816 2.72 13.248 7.488 18.080 43.84 44.032 102.208 68.288 164.256 68.288 62.144 0 120.512-24.256 164.352-68.288 4.768-4.8 7.488-11.264 7.488-18.080v-84.32c0-14.144-11.456-25.6-25.6-25.6h-292.352zM197.408 455.104v271.552c0 68.96 56.128 125.12 125.088 125.12h328.512c14.176 0 25.6-11.456 25.6-25.6 0-14.176-11.424-25.6-25.6-25.6h-328.512c-40.768 0-73.888-33.184-73.888-73.92v-271.552c0-14.144-11.456-25.6-25.6-25.6s-25.6 11.456-25.6 25.6zM465.888 72.256c-14.144 0-25.6 11.456-25.6 25.6s11.456 25.6 25.6 25.6h241.344c40.8 0 73.92 33.12 73.92 73.92v267.456c0 14.144 11.456 25.6 25.6 25.6 14.176 0 25.6-11.456 25.6-25.6v-267.456c0-68.96-56.128-125.12-125.12-125.12h-241.344z" />
<glyph unicode="&#xe951;" glyph-name="person-add" d="M603.84 259.552c12.736 0 23.040-10.304 23.040-23.040 0-12.704-10.304-22.976-23.040-22.976h-69.12v-69.184c0-12.704-10.336-23.040-23.040-23.040s-23.040 10.336-23.040 23.040v69.184h-69.12c-12.736 0-23.040 10.304-23.040 22.976 0 12.736 10.304 23.040 23.040 23.040h69.12v69.184c0 12.704 10.336 22.976 23.040 22.976s23.040-10.304 23.040-22.976v-69.184h69.12zM511.712 921.6c116.128 0 210.24-94.144 210.24-210.24 0-116.128-94.112-210.272-210.24-210.272s-210.24 94.144-210.24 210.272c0 116.064 94.112 210.24 210.24 210.24zM511.712 870.4c-87.712 0-159.040-71.36-159.040-159.040 0-87.712 71.328-159.072 159.040-159.072s159.040 71.36 159.040 159.072c0 87.648-71.328 159.040-159.040 159.040zM204.8 51.2h613.792v247.296c-82.944 79.68-191.552 123.328-306.88 123.328s-223.936-43.68-306.88-123.328v-247.296zM844.192 0h-664.992c-14.144 0-25.6 11.456-25.6 25.6v283.648c0 6.752 2.72 13.248 7.488 18.080 93.536 94.016 218.048 145.728 350.624 145.728s257.12-51.712 350.656-145.728c4.768-4.8 7.424-11.328 7.424-18.080v-283.648c0-14.144-11.424-25.6-25.6-25.6z" />
<glyph unicode="&#xe952;" glyph-name="person-check" d="M501.248 921.6c116.128 0 210.24-94.112 210.24-210.24s-94.112-210.24-210.24-210.24c-116.128 0-210.24 94.112-210.24 210.24s94.112 210.24 210.24 210.24zM501.248 870.4c-87.712 0-159.040-71.36-159.040-159.040 0-87.712 71.328-159.040 159.040-159.040s159.040 71.328 159.040 159.040c0 87.648-71.328 159.040-159.040 159.040zM204.8 52.192h592.896v238.4c-80.192 76.8-185.024 118.976-296.448 118.976s-216.256-42.176-296.448-118.976v-238.4zM823.296 0.992h-644.096c-14.144 0-25.6 11.424-25.6 25.6v274.688c0 6.816 2.72 13.312 7.488 18.112 90.72 91.2 211.52 141.376 340.16 141.376s249.44-50.176 340.224-141.376c4.704-4.8 7.424-11.328 7.424-18.112v-274.688c0-14.176-11.456-25.6-25.6-25.6zM444.256 109.184c-6.816 0-13.312 2.72-18.112 7.488l-78.080 78.24c-9.984 9.984-9.984 26.208 0 36.192s26.208 9.984 36.192 0l60-60.096 173.984 174.080c10.048 10.048 26.208 10.048 36.192 0 10.048-9.984 10.048-26.176 0-36.192l-192.064-192.192c-4.8-4.768-11.328-7.488-18.112-7.488z" />
<glyph unicode="&#xe953;" glyph-name="person" d="M501.248 921.6c116.128 0 210.24-94.112 210.24-210.24s-94.112-210.24-210.24-210.24c-116.128 0-210.24 94.112-210.24 210.24s94.112 210.24 210.24 210.24zM501.248 870.4c-87.712 0-159.040-71.36-159.040-159.040 0-87.712 71.328-159.040 159.040-159.040s159.040 71.328 159.040 159.040c0 87.648-71.328 159.040-159.040 159.040zM204.8 52.192h592.896v238.4c-80.192 76.8-185.024 118.976-296.448 118.976s-216.256-42.176-296.448-118.976v-238.4zM823.296 0.992h-644.096c-14.144 0-25.6 11.424-25.6 25.6v274.688c0 6.816 2.72 13.312 7.488 18.112 90.72 91.2 211.52 141.376 340.16 141.376s249.44-50.176 340.224-141.376c4.704-4.8 7.424-11.328 7.424-18.112v-274.688c0-14.176-11.456-25.6-25.6-25.6z" />
<glyph unicode="&#xe954;" glyph-name="phone-alert" d="M821.76 0h-414.72c-38.112 0-69.12 31.008-69.12 69.12v276.48c0 12.704 10.336 23.040 23.040 23.040s23.040-10.336 23.040-23.040v-276.48c0-12.704 10.336-23.040 23.040-23.040h414.72c12.704 0 23.040 10.336 23.040 23.040v783.36c0 12.704-10.336 23.040-23.040 23.040h-184.32c-12.704 0-23.040 10.336-23.040 23.040s10.336 23.040 23.040 23.040h184.32c38.112 0 69.12-31.008 69.12-69.12v-783.36c0-38.112-31.008-69.12-69.12-69.12zM775.68 184.32h-322.56c-12.704 0-23.040 10.336-23.040 23.040v138.24c0 12.704 10.336 23.040 23.040 23.040s23.040-10.336 23.040-23.040v-115.2h276.48v552.96h-23.040c-12.704 0-23.040 10.336-23.040 23.040s10.336 23.040 23.040 23.040h46.080c12.704 0 23.040-10.336 23.040-23.040v-599.040c0-12.704-10.336-23.040-23.040-23.040zM407.040 506.88c-12.704 0-23.040 10.336-23.040 23.040v138.24c0 12.704 10.336 23.040 23.040 23.040s23.040-10.336 23.040-23.040v-138.24c0-12.704-10.336-23.040-23.040-23.040zM407.040 737.28c-12.704 0-23.040 10.336-23.040 23.040v46.080c0 12.704 10.336 23.040 23.040 23.040s23.040-10.336 23.040-23.040v-46.080c0-12.704-10.336-23.040-23.040-23.040zM637.44 92.16h-46.080c-12.704 0-23.040 10.336-23.040 23.040s10.336 23.040 23.040 23.040h46.080c12.704 0 23.040-10.336 23.040-23.040s-10.336-23.040-23.040-23.040zM407.040 414.72c-139.776 0-253.44 113.664-253.44 253.44s113.664 253.44 253.44 253.44c139.776 0 253.44-113.664 253.44-253.44s-113.664-253.44-253.44-253.44zM407.040 875.52c-114.336 0-207.36-93.024-207.36-207.36s93.024-207.36 207.36-207.36c114.336 0 207.36 93.024 207.36 207.36s-93.024 207.36-207.36 207.36z" />
<glyph unicode="&#xe955;" glyph-name="phone-mobile" d="M509.44 92.16c-38.112 0-69.12 31.008-69.12 69.12s31.008 69.12 69.12 69.12c38.112 0 69.12-31.008 69.12-69.12s-31.008-69.12-69.12-69.12zM555.52 783.36h-92.16c-12.704 0-23.040 10.336-23.040 23.040s10.336 23.040 23.040 23.040h92.16c12.704 0 23.040-10.336 23.040-23.040s-10.336-23.040-23.040-23.040zM394.24 806.4c0-12.704-10.336-23.040-23.040-23.040s-23.040 10.336-23.040 23.040c0 12.704 10.336 23.040 23.040 23.040s23.040-10.336 23.040-23.040zM509.44 184.32c-12.704 0-23.040-10.336-23.040-23.040s10.336-23.040 23.040-23.040c12.704 0 23.040 10.336 23.040 23.040s-10.336 23.040-23.040 23.040zM693.76 0h-368.64c-38.112 0-69.12 31.008-69.12 69.12v783.36c0 38.112 31.008 69.12 69.12 69.12h368.64c38.112 0 69.12-31.008 69.12-69.12v-783.36c0-38.112-31.008-69.12-69.12-69.12zM325.12 875.52c-12.704 0-23.040-10.336-23.040-23.040v-783.36c0-12.704 10.336-23.040 23.040-23.040h368.64c12.704 0 23.040 10.336 23.040 23.040v783.36c0 12.704-10.336 23.040-23.040 23.040h-368.64z" />
<glyph unicode="&#xe956;" glyph-name="phone" d="M787.84 0.032c-81.6 0-168.416 23.136-258.048 68.736-82.624 42.080-164.224 102.304-236 174.176s-131.904 153.568-173.952 236.256c-45.536 89.664-68.672 176.48-68.672 258.080 0 52.896 49.312 104 70.464 123.488 30.464 28.064 78.368 60.832 113.216 60.832 17.312 0 37.6-11.328 63.904-35.68 19.584-18.144 41.664-42.752 63.712-71.136 13.312-17.152 79.712-104.64 79.712-146.624 0-34.432-38.944-58.368-80.128-83.68-15.936-9.76-32.384-19.904-44.288-29.44-12.704-10.176-14.976-15.584-15.328-16.768 43.744-109.024 177.408-242.688 286.368-286.368 0.96 0.32 6.368 2.432 16.736 15.36 9.536 11.904 19.68 28.384 29.44 44.288 25.344 41.184 49.248 80.128 83.68 80.128 41.984 0 129.472-66.4 146.624-79.712 28.384-22.080 52.992-44.128 71.136-63.712 24.32-26.272 35.648-46.592 35.648-63.904 0-34.848-32.768-82.88-60.768-113.504-19.552-21.28-70.624-70.816-123.52-70.816l0.032 0.032zM234.624 875.52c-12.352-0.224-45.568-15.328-81.696-48.608-34.272-31.616-55.616-65.952-55.616-89.632 0-310.048 380.8-691.168 690.528-691.168 23.648 0 57.952 21.44 89.568 55.904 33.312 36.32 48.416 69.664 48.672 82.048-1.472 8.768-25.696 42.816-92.032 93.856-56.992 43.872-103.2 67.424-115.104 67.68-0.832-0.224-5.984-2.208-16.448-15.488-9.088-11.552-18.784-27.36-28.256-42.656-25.792-41.984-50.176-81.664-85.6-81.664-5.728 0-11.328 1.12-16.736 3.264-120.96 48.384-263.968 191.392-312.352 312.352-5.792 14.528-6.72 37.28 21.856 63.168 15.2 13.792 36.224 26.688 56.576 39.2 15.296 9.408 31.136 19.136 42.656 28.256 13.28 10.464 15.264 15.616 15.488 16.448-0.32 11.872-23.808 58.112-67.68 115.104-51.040 66.304-85.12 90.496-93.856 92.032l0.032-0.128z" />
<glyph unicode="&#xe957;" glyph-name="picture" d="M204.8 278.656h614.4v275.712l-152.736-152.768c-4.8-4.768-11.328-7.488-18.112-7.488s-13.312 2.72-18.080 7.488l-217.696 217.696-207.776-207.776v-132.864zM819.2 765.6h-614.4v-281.696l189.696 189.696c9.568 9.568 26.56 9.568 36.192 0l217.664-217.696 170.848 170.848v138.848zM153.6 227.456v589.376h716.8v-589.376h-716.8zM634.88 673.888c19.36 0 35.136-15.776 35.136-35.136s-15.776-35.136-35.136-35.136c-19.36 0-35.136 15.776-35.136 35.136s15.776 35.136 35.136 35.136zM634.88 552.448c47.616 0 86.336 38.752 86.336 86.336 0 47.616-38.72 86.336-86.336 86.336s-86.336-38.72-86.336-86.336c0-47.552 38.72-86.336 86.336-86.336zM156.48 870.4c-29.856 0-54.080-24.256-54.080-54.080v-711.072c0-29.792 24.224-54.080 54.080-54.080h711.072c29.792 0 54.080 24.256 54.080 54.080v711.072c0 29.792-24.256 54.080-54.080 54.080h-711.072zM867.552 0h-711.072c-58.048 0-105.28 47.2-105.28 105.28v711.072c0 58.048 47.2 105.28 105.28 105.28h711.072c58.016 0 105.28-47.2 105.28-105.28v-711.072c0-58.048-47.264-105.28-105.28-105.28z" />
</font>
</defs>
</svg>
